<?xml version="1.0" encoding="UTF-8"?>
<svg version="1.1" xmlns="http://www.w3.org/2000/svg" width="750" height="750">
<path d="M0 0 C1.48525976 -0.00375528 1.48525976 -0.00375528 3.00052476 -0.00758642 C4.0984887 -0.00524525 5.19645264 -0.00290409 6.32768822 -0.00049198 C7.49099781 -0.00194542 8.6543074 -0.00339886 9.8528688 -0.00489634 C13.10616944 -0.00793458 16.35943313 -0.00644708 19.61273238 -0.00311839 C23.14285996 -0.00059494 26.67298282 -0.00383631 30.20310974 -0.00636172 C36.39814463 -0.00998446 42.59317081 -0.00985709 48.7882061 -0.00731456 C58.00018914 -0.00354405 67.2121648 -0.00545957 76.42414778 -0.00852287 C92.87332646 -0.01379883 109.32250125 -0.01332816 125.7716803 -0.01044396 C140.16629606 -0.00793227 154.56091041 -0.00726989 168.95552635 -0.0084666 C169.90890521 -0.00854299 170.86228406 -0.00861937 171.84455319 -0.00869807 C175.71424783 -0.00900939 179.58394246 -0.00932779 183.4536371 -0.00965784 C219.78334899 -0.01271953 256.11305841 -0.00993911 292.44276991 -0.00456094 C324.74721463 0.00018496 357.0516554 -0.00023965 389.35610008 -0.00502193 C425.61770691 -0.01037202 461.87931156 -0.01250243 498.14091873 -0.00940967 C502.00372251 -0.00908893 505.86652629 -0.00877609 509.72933006 -0.0084666 C511.15609959 -0.00834799 511.15609959 -0.00834799 512.61169274 -0.00822697 C527.00023032 -0.00708762 541.38876633 -0.00842326 555.7773037 -0.01094615 C572.13129355 -0.0137993 588.48527891 -0.01310367 604.83926821 -0.00766541 C614.00150244 -0.00471949 623.16372695 -0.00455128 632.32596094 -0.00831159 C638.4357315 -0.0105434 644.54549421 -0.00917767 650.6552636 -0.00480682 C654.14321567 -0.00241377 657.63114835 -0.00164402 661.11909986 -0.0052128 C664.86514176 -0.00821675 668.61112922 -0.00517228 672.3571682 -0.00049198 C673.45513214 -0.00283314 674.55309608 -0.00517431 675.68433166 -0.00758642 C676.67450483 -0.0050829 677.664678 -0.00257938 678.68485641 0 C679.54261433 0.00006776 680.40037225 0.00013552 681.28412282 0.00020533 C683.34242821 0.12534916 683.34242821 0.12534916 685.34242821 1.12534916 C685.95977789 5.47149091 684.55064557 7.81261799 682.03188133 11.29722416 C681.5774868 11.90050541 681.12309227 12.50378666 680.65492821 13.12534916 C680.21986961 13.72863041 679.78481102 14.33191166 679.33656883 14.95347416 C676.60960722 18.67022185 673.67160354 21.92073482 670.34242821 25.12534916 C668.0550114 27.75934428 666.26818671 30.25758675 664.55727196 33.30503666 C662.27162721 37.34421839 659.66279101 41.10112439 656.96742821 44.87534916 C656.19012352 45.97073002 656.19012352 45.97073002 655.39711571 47.08823979 C650.86172356 53.45398663 646.21922409 59.73906089 641.56899071 66.02110112 C633.45426017 77.00269235 625.50922853 88.09903994 618.15883446 99.60972416 C616.34242821 102.12534916 616.34242821 102.12534916 613.89711571 104.56284916 C611.15430396 107.31404871 609.08250491 110.16138568 606.90492821 113.37534916 C606.51224754 113.9510767 606.11956688 114.52680424 605.7149868 115.11997807 C603.60139624 118.2265656 601.52810845 121.35855842 599.46742821 124.50034916 C596.61025289 128.80225437 593.61494834 133.00124373 590.59242821 137.18784916 C589.86563866 138.20854496 589.86563866 138.20854496 589.12416649 139.24986088 C587.91356109 140.91258427 586.63343343 142.52424954 585.34242821 144.12534916 C584.68242821 144.12534916 584.02242821 144.12534916 583.34242821 144.12534916 C583.10266258 144.82144291 582.86289696 145.51753666 582.61586571 146.23472416 C581.12818812 149.61166102 579.14685752 152.42526006 576.96742821 155.37534916 C576.0710109 156.60930014 575.17520585 157.84369607 574.27992821 159.07847416 C573.56836571 160.0559058 573.56836571 160.0559058 572.84242821 161.05308354 C570.18666984 164.72204139 567.57817817 168.42429837 564.96742821 172.12534916 C564.46807762 172.83078862 563.96872704 173.53622807 563.45424461 174.26304448 C561.33596507 177.26221396 559.24849088 180.26764168 557.22524071 183.33238041 C555.46064326 185.94998866 553.59553616 188.37518267 551.59242821 190.81284916 C545.90896817 197.85654361 540.57749822 205.07209537 535.77992821 212.75034916 C532.63998744 217.75552997 529.39144424 222.79856422 525.34242821 227.12534916 C524.68242821 227.12534916 524.02242821 227.12534916 523.34242821 227.12534916 C522.93443993 228.23523198 522.93443993 228.23523198 522.51820946 229.36753666 C521.4017101 231.98630259 520.20024424 233.95842185 518.52992821 236.25034916 C516.03808742 239.72112741 513.59397436 243.21375658 511.20180321 246.75425541 C510.63953026 247.58489506 510.07725731 248.41553471 509.49794579 249.27134526 C508.37506152 250.93245443 507.2549838 252.59546516 506.1380825 254.26060307 C502.80997566 259.16682631 499.39148669 263.78582737 495.34242821 268.12534916 C494.68242821 268.12534916 494.02242821 268.12534916 493.34242821 268.12534916 C493.22850731 268.70784428 493.11458641 269.2903394 492.99721336 269.89048588 C492.28674612 272.31539905 491.34031841 273.84011887 489.86586571 275.88316166 C489.11200584 276.93793705 489.11200584 276.93793705 488.34291649 278.01402104 C487.80650536 278.75200932 487.27009422 279.4899976 486.71742821 280.25034916 C485.61838355 281.78414148 484.51942476 283.31799533 483.42055321 284.85191166 C482.62294579 285.95841069 482.62294579 285.95841069 481.80922508 287.08726323 C480.01010316 289.58710841 478.23418721 292.10254464 476.46742821 294.62534916 C475.93375633 295.38589604 475.40008446 296.14644291 474.85024071 296.93003666 C473.30608091 299.17826932 471.82470684 301.46096593 470.34242821 303.75034916 C468.41385006 306.67120367 466.38484696 309.28764534 464.02992821 311.87534916 C459.68601137 316.6966195 456.13155348 322.04667526 452.5040493 327.4109937 C449.1603818 332.3456791 445.75379774 337.23732674 442.34242821 342.12534916 C441.59219383 343.20171635 440.84195946 344.27808354 440.06899071 345.38706791 C439.35485008 346.39382573 438.64070946 347.40058354 437.90492821 348.43784916 C437.26684227 349.34148198 436.62875633 350.24511479 435.97133446 351.17613041 C435.16502586 352.1409937 435.16502586 352.1409937 434.34242821 353.12534916 C433.68242821 353.12534916 433.02242821 353.12534916 432.34242821 353.12534916 C432.11555321 353.79566166 431.88867821 354.46597416 431.65492821 355.15659916 C429.96638089 358.97593237 427.72984138 362.21147556 425.34242821 365.62534916 C424.85766014 366.32514897 424.37289207 367.02494877 423.87343407 367.74595463 C419.93222065 373.38869208 415.79423542 378.85369916 411.53383446 384.25816166 C410.09820243 386.13651088 408.71962128 388.06018866 407.40883446 390.02769291 C404.98739279 393.65756672 402.36482501 397.09656866 399.71742821 400.56284916 C395.66443659 405.91237566 391.77899994 411.32942291 388.09242821 416.93784916 C385.08792921 421.50236498 382.0640402 426.04076484 378.90492821 430.50034916 C378.28746727 431.37433354 377.67000633 432.24831791 377.03383446 433.14878666 C375.34242821 435.12534916 375.34242821 435.12534916 372.34242821 436.12534916 C371.27120253 437.93832361 371.27120253 437.93832361 370.34242821 440.12534916 C364.98913914 449.14900708 358.81346113 457.62796275 352.73012352 466.16489995 C350.32692724 469.55998548 347.98380741 472.99675093 345.64711571 476.43784916 C344.34242821 478.12534916 344.34242821 478.12534916 342.34242821 479.12534916 C341.4277992 480.74469232 340.51610397 482.36575431 339.61830711 483.99448979 C337.10300934 488.19531623 334.00903772 491.99718369 331.02992821 495.87534916 C326.19336395 502.22483027 321.57197531 508.52517931 317.54164696 515.42222416 C317.14590477 515.98425541 316.75016258 516.54628666 316.34242821 517.12534916 C315.68242821 517.12534916 315.02242821 517.12534916 314.34242821 517.12534916 C314.06552147 517.70856938 313.78861473 518.29178959 313.50331688 518.89268315 C312.39250631 521.02903702 311.17446048 522.89666447 309.76820946 524.84800541 C309.26910057 525.54579106 308.76999168 526.2435767 308.25575829 526.96250737 C307.72748436 527.69687016 307.19921043 528.43123295 306.65492821 529.18784916 C303.19573024 534.0336 299.79320416 538.87515872 296.65492821 543.93784916 C292.47522887 550.63766134 287.89431739 557.62002032 282.25649071 563.18394291 C280.22423425 565.2452316 278.88972598 567.26912212 277.40492821 569.75034916 C274.02802031 575.17542511 270.38850484 580.37741288 266.65492821 585.56284916 C266.09620018 586.34418217 265.53747215 587.12551518 264.96181297 587.93052495 C264.15441673 589.04596684 264.15441673 589.04596684 263.33070946 590.18394291 C262.61201683 591.17865605 262.61201683 591.17865605 261.87880516 592.1934644 C261.37180077 592.83098637 260.86479637 593.46850834 260.34242821 594.12534916 C259.87150246 594.81550114 259.40057671 595.50565312 258.91538048 596.21671879 C254.80841947 599.26328541 250.6189749 598.65727233 245.63881493 598.59531987 C244.00415779 598.59860547 244.00415779 598.59860547 242.33647728 598.60195744 C238.73138227 598.60427055 235.12710196 598.57800281 231.52211571 598.55113041 C229.02155886 598.54620826 226.52099833 598.54290824 224.02043724 598.54116642 C218.77984735 598.53352239 213.53946567 598.51348461 208.29897118 598.48203862 C201.56876624 598.44170712 194.83871337 598.42434446 188.10840225 598.41472924 C181.70461584 598.40477308 175.30087316 598.38486923 168.89711571 598.36363041 C167.66834583 598.36023467 166.43957596 598.35683892 165.17357063 598.35334027 C161.71141112 598.34180809 158.24936623 598.32329462 154.78725243 598.30235112 C153.75344444 598.29966221 152.71963646 598.29697331 151.65450096 598.29420292 C150.71514702 598.28704762 149.77579308 598.27989232 148.80797386 598.27252018 C147.98908621 598.2682467 147.17019855 598.26397322 146.32649612 598.25957024 C144.34242821 598.12534916 144.34242821 598.12534916 142.34242821 597.12534916 C141.8800781 594.4796791 142.02074784 592.6833256 143.37074852 590.34165776 C144.85139297 588.28659838 146.39014942 586.29470183 147.96742821 584.31284916 C148.48949852 583.63931401 149.01156883 582.96577885 149.54945946 582.27183354 C150.60379073 580.91161603 151.66402818 579.55595597 152.73012352 578.20493901 C154.91496541 575.38687674 156.99041607 572.49190563 159.0587368 569.58750737 C159.48235497 569.10499516 159.90597313 568.62248295 160.34242821 568.12534916 C161.00242821 568.12534916 161.66242821 568.12534916 162.34242821 568.12534916 C162.46158592 567.53310551 162.58074364 566.94086186 162.70351219 566.33067143 C163.74466381 562.73696774 166.17150338 560.00537432 168.40492821 557.06284916 C169.41028103 555.7153007 170.41548836 554.36764367 171.42055321 553.01988041 C171.9174868 552.35810795 172.41442039 551.69633549 172.92641258 551.01450932 C174.85559581 548.4407128 176.75869031 545.84848908 178.65492821 543.25034916 C179.28270164 542.39054448 179.91047508 541.53073979 180.55727196 540.64488041 C182.8548332 537.40215174 185.00501324 534.07413114 187.11586571 530.70738041 C187.52063133 530.1853101 187.92539696 529.66323979 188.34242821 529.12534916 C189.00242821 529.12534916 189.66242821 529.12534916 190.34242821 529.12534916 C190.57574852 528.60070073 190.80906883 528.07605229 191.04945946 527.53550541 C192.76401559 524.3394899 194.89220398 521.48259005 197.02992821 518.56284916 C200.09934759 514.33052979 203.04836288 510.08734787 205.77992821 505.62534916 C208.65586805 501.02246936 211.82775129 496.71942465 215.15492821 492.43784916 C215.63566795 491.81265385 216.1164077 491.18745854 216.61171532 490.54331791 C217.80597889 489.03040031 219.06884208 487.57212611 220.34242821 486.12534916 C221.00242821 486.12534916 221.66242821 486.12534916 222.34242821 486.12534916 C222.72141258 485.32290776 222.72141258 485.32290776 223.10805321 484.50425541 C230.46422896 470.32732177 240.90638853 457.65450432 250.48695946 444.95347416 C251.48060017 443.63587979 252.47409247 442.31817348 253.46742821 441.00034916 C253.95155174 440.35831547 254.43567528 439.71628178 254.93446922 439.05479252 C260.11611476 432.15025633 265.05634733 425.07881264 270.01430321 418.01304448 C274.97559103 410.96144936 280.11065083 404.11097066 285.52602196 397.40269291 C288.70887131 393.41215275 291.62528001 389.43394318 294.08070946 384.95347416 C296.59049998 380.52364128 299.65922575 376.5751809 302.77992821 372.56284916 C303.34002586 371.83388432 303.90012352 371.10491948 304.47719383 370.35386479 C306.92989844 367.1742209 309.40324441 364.02581668 311.99867821 360.96128666 C314.30793511 358.16708581 316.36673895 355.30926228 318.40492821 352.31284916 C322.62315946 346.1419703 326.92858858 340.03622155 331.2684536 333.95030034 C333.25222895 331.15472635 335.17671248 328.41472079 336.88149071 325.43784916 C338.34242821 323.12534916 338.34242821 323.12534916 340.58852196 320.89878666 C344.30405596 317.15690136 347.30085381 313.00322735 350.40492821 308.75034916 C351.01658836 307.92534916 351.62824852 307.10034916 352.25844383 306.25034916 C354.87024794 302.69264843 357.39954284 299.1712744 359.54945946 295.31284916 C361.17062612 292.43077509 362.8614251 290.03651461 364.96742821 287.50034916 C368.18413155 283.55748704 371.35418418 279.58751693 374.46742821 275.56284916 C375.64692039 274.04497807 375.64692039 274.04497807 376.85024071 272.49644291 C379.29875032 269.25669467 381.51832492 265.88037979 383.7540493 262.49180424 C386.43069562 258.50398795 389.26440772 254.63156348 392.09242821 250.75034916 C393.23352705 249.18038096 394.37417162 247.61008245 395.51430321 246.03941166 C396.01027 245.35830327 396.5062368 244.67719487 397.01723289 243.97544682 C398.15866567 242.38189899 399.25512194 240.75630856 400.34242821 239.12534916 C401.00242821 239.12534916 401.66242821 239.12534916 402.34242821 239.12534916 C402.61031151 238.38816655 402.87819481 237.65098393 403.15419579 236.89146245 C404.31186438 234.19649939 405.58642213 232.19502763 407.35414696 229.86753666 C407.94397362 229.0820142 408.53380028 228.29649174 409.14150047 227.48716557 C410.0762722 226.25619145 410.0762722 226.25619145 411.02992821 225.00034916 C415.58596904 218.92832931 419.96499937 212.90025583 423.81508446 206.35191166 C425.34242821 204.12534916 425.34242821 204.12534916 427.62758446 201.87534916 C431.09478672 198.36324788 433.86026435 194.51375519 436.71742821 190.50034916 C437.58114037 189.29656621 437.58114037 189.29656621 438.46230125 188.0684644 C442.050599 183.03511245 445.45556311 177.92382697 448.71742821 172.67222416 C451.68994346 168.01337815 454.78217812 163.35672686 458.34242821 159.12534916 C459.00242821 159.12534916 459.66242821 159.12534916 460.34242821 159.12534916 C460.34242821 158.46534916 460.34242821 157.80534916 460.34242821 157.12534916 C461.00242821 157.12534916 461.66242821 157.12534916 462.34242821 157.12534916 C462.61570946 156.55945073 462.88899071 155.99355229 463.17055321 155.41050541 C468.63829282 144.74841317 476.29055605 135.27569281 483.42250633 125.70396245 C486.67780499 121.33182811 489.91694761 116.94781551 493.15492821 112.56284916 C493.75957909 111.74751713 494.36422997 110.9321851 494.9872036 110.09214604 C495.54399803 109.33868901 496.10079247 108.58523198 496.67445946 107.80894291 C497.41272972 106.81205449 497.41272972 106.81205449 498.16591454 105.7950269 C499.40484904 104.12518961 499.40484904 104.12518961 500.34242821 102.12534916 C499.4450397 102.12724777 498.5476512 102.12914637 497.62306911 102.1311025 C444.47216992 102.24291956 391.32128318 102.32874482 338.17028998 102.38067581 C331.79269198 102.38692957 325.41509421 102.39340116 319.03749657 102.40000737 C317.13294698 102.4019747 317.13294698 102.4019747 315.18992164 102.40398177 C294.61354203 102.42575623 274.03723205 102.465189 253.46089379 102.51111314 C232.35789241 102.55782098 211.25492758 102.58563255 190.15187663 102.59579164 C177.12331469 102.60266256 164.09494955 102.62438712 151.06644817 102.6649315 C142.14020138 102.69129983 133.21405677 102.69936358 124.28777383 102.69285605 C119.13271598 102.68964396 113.97800272 102.69467167 108.82300568 102.72137654 C104.10706579 102.74562932 99.39170366 102.74698882 94.6757377 102.72984364 C92.96636179 102.72772327 91.25695047 102.73413342 89.54764471 102.74976508 C87.22940013 102.76973909 84.91325994 102.75907821 82.59504986 102.74058831 C81.30589934 102.74248691 80.01674882 102.74438551 78.68853313 102.74634165 C74.46689713 101.96286226 73.05522842 100.36912631 70.34242821 97.12534916 C69.70820946 96.44214604 69.07399071 95.75894291 68.42055321 95.05503666 C64.1040455 90.20357714 59.96712587 85.23528934 55.87758446 80.19175541 C53.00767756 76.72045046 50.05706001 73.32813783 47.09242821 69.93784916 C40.81660894 62.74836208 34.79210511 55.37316855 28.8087368 47.93980229 C26.69181709 45.32026394 24.54761494 42.72385033 22.40492821 40.12534916 C12.73361992 28.29892429 12.73361992 28.29892429 11.34242821 24.12534916 C10.76492821 23.84304448 10.18742821 23.56073979 9.59242821 23.26988041 C6.47210585 21.6826331 4.65920567 19.42275548 2.34242821 16.81284916 C1.49680321 15.86796635 0.65117821 14.92308354 -0.22007179 13.94956791 C-6.62136407 6.53268599 -6.62136407 6.53268599 -6.90757179 3.31284916 C-6.82507179 2.59097416 -6.74257179 1.86909916 -6.65757179 1.12534916 C-4.23355915 -0.08665716 -2.70912184 0.00021401 0 0 Z " fill="#3D74AE" transform="translate(32.65757179260254,75.8746508359909)"/>
<path d="M0 0 C4.46996698 0.72894846 6.72758239 4.07160067 9.5390625 7.4140625 C10.87239583 9.4140625 12.20572917 11.4140625 13.5390625 13.4140625 C18.42310533 19.13827148 23.52274184 24.68983789 29.04296875 29.80859375 C33.44479783 34.00616162 37.10328096 38.64517631 40.75854492 43.48730469 C46.68573428 52.04817064 46.68573428 52.04817064 54.5390625 58.4140625 C54.5390625 59.7340625 54.5390625 61.0540625 54.5390625 62.4140625 C53.8790625 62.4140625 53.2190625 62.4140625 52.5390625 62.4140625 C52.11947266 63.53361328 52.11947266 63.53361328 51.69140625 64.67578125 C50.66423961 67.11660774 49.59257919 69.05419101 48.1015625 71.2265625 C47.56789063 72.00773437 47.03421875 72.78890625 46.484375 73.59375 C45.52144531 74.98980469 45.52144531 74.98980469 44.5390625 76.4140625 C43.74422173 77.58294598 42.94999374 78.75224629 42.15625 79.921875 C36.69949677 87.93753097 31.09562843 95.83349948 25.39428711 103.67675781 C20.38877297 110.57978224 15.56285433 117.59785439 10.76318359 124.64477539 C9.49709646 126.47471824 8.19697396 128.27675636 6.890625 130.078125 C5.03256473 132.66655259 3.40359103 135.27956458 1.9140625 138.1015625 C0.3369981 141.08104995 -1.26600229 143.84169135 -3.4609375 146.4140625 C-4.1209375 146.4140625 -4.7809375 146.4140625 -5.4609375 146.4140625 C-5.70199219 146.94644531 -5.94304687 147.47882813 -6.19140625 148.02734375 C-7.80694328 151.06455336 -9.78103328 153.80590779 -11.7734375 156.6015625 C-14.38931288 160.31572199 -16.89935129 164.01639239 -19.0234375 168.0390625 C-21.4291273 172.56839571 -24.40480762 176.58045718 -27.46484375 180.6875 C-29.85641959 183.95427091 -32.05975262 187.32058233 -34.234375 190.734375 C-35.4609375 192.4140625 -35.4609375 192.4140625 -37.4609375 193.4140625 C-38.17641697 194.61547178 -38.83282081 195.85225687 -39.4609375 197.1015625 C-43.50473597 204.62350906 -48.76473223 211.37127681 -53.80322266 218.24536133 C-56.06307642 221.35881703 -58.10327998 224.40578871 -59.8359375 227.8515625 C-61.97463172 231.81958008 -64.49938336 234.95640831 -67.6171875 238.19921875 C-70.23934904 241.34914585 -72.28873234 244.93853425 -74.4609375 248.4140625 C-27.4359375 248.9090625 -27.4359375 248.9090625 20.5390625 249.4140625 C21.5390625 253.4140625 21.5390625 253.4140625 20.02734375 256.5859375 C17.2018711 261.13869394 13.95081758 265.38990052 10.7265625 269.6640625 C6.21777057 275.69476784 1.88536353 281.69209897 -1.93359375 288.1875 C-3.4609375 290.4140625 -3.4609375 290.4140625 -5.74609375 292.6640625 C-9.21331667 296.17618471 -11.97864437 300.02572378 -14.8359375 304.0390625 C-15.41102051 304.84013428 -15.98610352 305.64120605 -16.57861328 306.46655273 C-20.19803043 311.54141585 -23.61463559 316.70359234 -26.90234375 322 C-29.47477409 325.98436579 -32.21560607 329.9460962 -35.4609375 333.4140625 C-36.1209375 333.4140625 -36.7809375 333.4140625 -37.4609375 333.4140625 C-37.7084375 334.1359375 -37.9559375 334.8578125 -38.2109375 335.6015625 C-39.5942396 338.71399223 -41.30296886 340.77654527 -43.4609375 343.4140625 C-45.03240881 345.76724005 -46.56999284 348.13911283 -48.09375 350.5234375 C-49.4609375 352.4140625 -49.4609375 352.4140625 -51.4609375 353.4140625 C-54.00522073 353.50963069 -56.52198446 353.54421208 -59.06643677 353.53431702 C-59.86035478 353.53517144 -60.65427278 353.53602587 -61.47224891 353.53690618 C-64.14704918 353.53856046 -66.82178749 353.53304046 -69.49658203 353.52758789 C-71.40818276 353.52730598 -73.31978361 353.52746383 -75.23138428 353.5280304 C-80.43358869 353.52831823 -85.63577022 353.52242383 -90.8379693 353.51545644 C-96.26989788 353.5092205 -101.70182694 353.50861891 -107.13375854 353.50743103 C-117.42557712 353.50431843 -127.71738511 353.49610599 -138.00919902 353.48608154 C-149.7236523 353.47491821 -161.43810607 353.4694094 -173.15256333 353.46438611 C-197.25536059 353.45392332 -221.35814846 353.43632524 -245.4609375 353.4140625 C-246.57861328 348.68798828 -246.57861328 348.68798828 -245.51953125 346.22265625 C-244.71708984 345.04896484 -244.71708984 345.04896484 -243.8984375 343.8515625 C-242.94324219 342.43423828 -242.94324219 342.43423828 -241.96875 340.98828125 C-241.13504227 339.79531362 -240.29879873 338.60411667 -239.4609375 337.4140625 C-238.91791992 336.63885254 -238.37490234 335.86364258 -237.81542969 335.06494141 C-232.6895024 327.74874404 -232.6895024 327.74874404 -230.43725586 324.58374023 C-227.88598228 320.98196295 -225.40203904 317.43133877 -223.28515625 313.5546875 C-221.5572385 310.57985695 -219.87306478 308.81317877 -217.4609375 306.4140625 C-216.38111734 305.01536595 -215.33594535 303.58933923 -214.32421875 302.140625 C-213.46509888 300.91363892 -213.46509888 300.91363892 -212.58862305 299.66186523 C-211.6901062 298.36357788 -211.6901062 298.36357788 -210.7734375 297.0390625 C-210.15057861 296.14582275 -209.52771973 295.25258301 -208.88598633 294.33227539 C-205.355071 289.24181532 -201.93647217 284.10151015 -198.6484375 278.8515625 C-195.30711704 273.5575223 -191.60074014 268.81998357 -187.5703125 264.0390625 C-184.8785399 260.68930105 -182.65515835 257.14973041 -180.40234375 253.49609375 C-176.30536571 246.99203807 -171.86179721 240.71478202 -167.4609375 234.4140625 C-167.05069336 233.82367188 -166.64044922 233.23328125 -166.21777344 232.625 C-165.11924953 231.04913585 -164.00923623 229.48129853 -162.8984375 227.9140625 C-162.27839844 227.0375 -161.65835938 226.1609375 -161.01953125 225.2578125 C-160.50519531 224.649375 -159.99085938 224.0409375 -159.4609375 223.4140625 C-158.8009375 223.4140625 -158.1409375 223.4140625 -157.4609375 223.4140625 C-157.31712646 222.57983765 -157.31712646 222.57983765 -157.17041016 221.72875977 C-156.28283304 218.83298597 -154.86477963 216.84745826 -153.109375 214.37890625 C-152.42230469 213.40373047 -151.73523438 212.42855469 -151.02734375 211.42382812 C-150.30417969 210.40998047 -149.58101563 209.39613281 -148.8359375 208.3515625 C-144.02009403 201.56237618 -139.31645658 194.74657559 -134.89306641 187.69360352 C-133.77643179 185.91623948 -132.62526574 184.16055486 -131.4609375 182.4140625 C-130.8009375 182.4140625 -130.1409375 182.4140625 -129.4609375 182.4140625 C-129.23019531 181.89199219 -128.99945313 181.36992187 -128.76171875 180.83203125 C-127.01437111 177.5839586 -124.82871529 174.69083201 -122.6484375 171.7265625 C-119.87594151 167.9111336 -117.18862083 164.17862199 -115.0234375 159.9765625 C-111.64946693 153.50978557 -106.99596697 147.79798804 -102.6184082 141.98876953 C-101.52104346 140.49583501 -100.48871521 138.95572907 -99.4609375 137.4140625 C-98.8009375 137.4140625 -98.1409375 137.4140625 -97.4609375 137.4140625 C-97.0896875 136.640625 -97.0896875 136.640625 -96.7109375 135.8515625 C-92.3339076 127.3163542 -86.83216549 119.68386152 -81.3046875 111.86328125 C-77.04234618 105.84085963 -77.04234618 105.84085963 -73.2734375 99.5078125 C-71.34733974 96.22016287 -69.15863668 94.08738488 -66.4609375 91.4140625 C-64.50688493 88.78394263 -62.73904348 86.04019589 -60.9609375 83.2890625 C-59.91232904 81.69473948 -58.86281653 80.10101078 -57.8125 78.5078125 C-57.26883789 77.68023437 -56.72517578 76.85265625 -56.16503906 76 C-53.25036502 71.57704478 -50.30212944 67.17759507 -47.3359375 62.7890625 C-46.77970703 61.95358887 -46.22347656 61.11811523 -45.65039062 60.25732422 C-45.13154297 59.49178223 -44.61269531 58.72624023 -44.078125 57.9375 C-43.62034668 57.25606934 -43.16256836 56.57463867 -42.69091797 55.87255859 C-42.28502441 55.39125488 -41.87913086 54.90995117 -41.4609375 54.4140625 C-40.8009375 54.4140625 -40.1409375 54.4140625 -39.4609375 54.4140625 C-39.4609375 53.4240625 -39.4609375 52.4340625 -39.4609375 51.4140625 C-38.14680712 50.06179888 -36.80940103 48.73209196 -35.4609375 47.4140625 C-34.08198681 45.38177831 -32.75355315 43.31482226 -31.4609375 41.2265625 C-27.89081689 35.54692891 -24.14976342 30.01419139 -20.2734375 24.5390625 C-19.78681641 23.85046143 -19.30019531 23.16186035 -18.79882812 22.45239258 C-15.85862578 18.31611671 -12.84237622 14.24463883 -9.78442383 10.19482422 C-8.73468156 8.78238739 -7.72839353 7.33767136 -6.73828125 5.8828125 C-6.29613281 5.233125 -5.85398437 4.5834375 -5.3984375 3.9140625 C-4.95371094 3.24375 -4.50898438 2.5734375 -4.05078125 1.8828125 C-2.4609375 0.4140625 -2.4609375 0.4140625 0 0 Z " fill="#F8F8F8" transform="translate(262.4609375,211.5859375)"/>
<path d="M0 0 C23.64343737 -0.11675085 47.28683161 -0.20494782 70.93049908 -0.25906086 C81.90843524 -0.28485324 92.8861924 -0.32002364 103.86401367 -0.37719727 C113.43119688 -0.42700043 122.99825046 -0.45928349 132.56555969 -0.47044247 C137.63243358 -0.47696644 142.69893661 -0.49232121 147.76569176 -0.52865028 C152.53373242 -0.56256091 157.30124908 -0.57306292 162.06939888 -0.56553841 C163.82017742 -0.56691516 165.5709733 -0.57687713 167.32164764 -0.59602737 C169.71151142 -0.62088958 172.09939443 -0.61493182 174.48930359 -0.60127258 C175.18289197 -0.61583679 175.87648035 -0.630401 176.59108657 -0.64540654 C180.42103915 -0.58619527 181.89440921 -0.08884732 184.86806965 2.41328144 C188.48257937 6.79884655 188.48257937 6.79884655 190.0078125 8.8828125 C190.51957031 9.57503906 191.03132813 10.26726562 191.55859375 10.98046875 C192.07550781 11.68816406 192.59242188 12.39585937 193.125 13.125 C194.1670142 14.54592846 195.21120901 15.96526094 196.2578125 17.3828125 C196.7130127 18.00559082 197.16821289 18.62836914 197.63720703 19.27001953 C198.96214432 21.02794777 198.96214432 21.02794777 200.55395508 22.5222168 C202.46151933 24.47164891 203.59844287 26.75481404 204.91064453 29.12646484 C206.69201808 32.19017184 208.81204024 34.98153049 210.9375 37.8125 C211.91862188 39.13493236 212.89906161 40.45787101 213.87890625 41.78125 C214.38953613 42.46960938 214.90016602 43.15796875 215.42626953 43.8671875 C218.65865939 48.24791319 221.83233127 52.6712317 225.01464844 57.08837891 C227.78856038 60.93793951 230.56780274 64.78324921 233.36328125 68.6171875 C238.58376244 75.78524523 243.76313835 82.97930855 248.75 90.3125 C249.16854248 90.91666748 249.58708496 91.52083496 250.01831055 92.14331055 C252.18542012 95.37448239 253.68602654 98.08246753 254 102 C253 103 253 103 250.81754011 103.1241985 C249.84279802 103.12381878 248.86805593 103.12343906 247.86377621 103.12304783 C246.74361518 103.12503888 245.62345415 103.12702993 244.46934885 103.12908131 C242.60022651 103.12471205 242.60022651 103.12471205 240.69334412 103.12025452 C239.38166938 103.12110894 238.06999465 103.12196337 236.7185722 103.12284368 C233.06091546 103.12509112 229.40328772 103.12106398 225.74563468 103.11606562 C221.80764681 103.11176485 217.8696607 103.11320728 213.93167114 103.1139679 C207.10323636 103.11449337 200.2748111 103.11134414 193.44637871 103.10573006 C183.57349631 103.09761821 173.70061854 103.09500016 163.82773317 103.09374207 C147.81134098 103.09155105 131.79495388 103.08488962 115.77856445 103.07543945 C100.21606471 103.06626662 84.65356635 103.05918516 69.09106445 103.05493164 C68.1325016 103.05466892 67.17393874 103.05440619 66.18632852 103.05413551 C61.37771229 103.05283051 56.56909605 103.0515668 51.76047981 103.05032361 C11.84031631 103.03994945 -28.07984151 103.02232978 -68 103 C-68.66 101.68 -69.32 100.36 -70 99 C-68.828125 97.40494792 -67.65625 95.80989583 -66.484375 94.21484375 C-64.87577531 91.87789215 -64.87577531 91.87789215 -63.19921875 88.7890625 C-60.76395178 84.47419235 -57.93392461 80.47039973 -55.0625 76.4375 C-54.55009766 75.70853516 -54.03769531 74.97957031 -53.50976562 74.22851562 C-51.21804181 70.99331212 -48.90563774 67.82478741 -46.33984375 64.80078125 C-44.16976352 62.20320609 -42.32911164 59.59343719 -40.5 56.75 C-36.39136547 50.48511643 -32.01468547 44.43636212 -27.56835938 38.40722656 C-24.3957383 34.07028807 -21.56939268 29.72094724 -19 25 C-18.34 25 -17.68 25 -17 25 C-16.5968457 24.15066895 -16.5968457 24.15066895 -16.18554688 23.28417969 C-13.98727876 19.04880149 -11.18258686 15.18950391 -8.5 11.25 C-7.90574219 10.36183594 -7.31148438 9.47367187 -6.69921875 8.55859375 C-6.12816406 7.71941406 -5.55710937 6.88023437 -4.96875 6.015625 C-4.44732422 5.24508789 -3.92589844 4.47455078 -3.38867188 3.68066406 C-2.93041016 3.12604492 -2.47214844 2.57142578 -2 2 C-1.34 2 -0.68 2 0 2 C0 1.34 0 0.68 0 0 Z " fill="#F4F4F4" transform="translate(480,462)"/>
<path d="M0 0 C1.48525976 -0.00375528 1.48525976 -0.00375528 3.00052476 -0.00758642 C4.0984887 -0.00524525 5.19645264 -0.00290409 6.32768822 -0.00049198 C7.49099781 -0.00194542 8.6543074 -0.00339886 9.8528688 -0.00489634 C13.10616944 -0.00793458 16.35943313 -0.00644708 19.61273238 -0.00311839 C23.14285996 -0.00059494 26.67298282 -0.00383631 30.20310974 -0.00636172 C36.39814463 -0.00998446 42.59317081 -0.00985709 48.7882061 -0.00731456 C58.00018914 -0.00354405 67.2121648 -0.00545957 76.42414778 -0.00852287 C92.87332646 -0.01379883 109.32250125 -0.01332816 125.7716803 -0.01044396 C140.16629606 -0.00793227 154.56091041 -0.00726989 168.95552635 -0.0084666 C169.90890521 -0.00854299 170.86228406 -0.00861937 171.84455319 -0.00869807 C175.71424783 -0.00900939 179.58394246 -0.00932779 183.4536371 -0.00965784 C219.78334899 -0.01271953 256.11305841 -0.00993911 292.44276991 -0.00456094 C324.74721463 0.00018496 357.0516554 -0.00023965 389.35610008 -0.00502193 C425.61770691 -0.01037202 461.87931156 -0.01250243 498.14091873 -0.00940967 C502.00372251 -0.00908893 505.86652629 -0.00877609 509.72933006 -0.0084666 C511.15609959 -0.00834799 511.15609959 -0.00834799 512.61169274 -0.00822697 C527.00023032 -0.00708762 541.38876633 -0.00842326 555.7773037 -0.01094615 C572.13129355 -0.0137993 588.48527891 -0.01310367 604.83926821 -0.00766541 C614.00150244 -0.00471949 623.16372695 -0.00455128 632.32596094 -0.00831159 C638.4357315 -0.0105434 644.54549421 -0.00917767 650.6552636 -0.00480682 C654.14321567 -0.00241377 657.63114835 -0.00164402 661.11909986 -0.0052128 C664.86514176 -0.00821675 668.61112922 -0.00517228 672.3571682 -0.00049198 C673.45513214 -0.00283314 674.55309608 -0.00517431 675.68433166 -0.00758642 C676.67450483 -0.0050829 677.664678 -0.00257938 678.68485641 0 C679.54261433 0.00006776 680.40037225 0.00013552 681.28412282 0.00020533 C683.34242821 0.12534916 683.34242821 0.12534916 685.34242821 1.12534916 C685.95977789 5.47149091 684.55064557 7.81261799 682.03188133 11.29722416 C681.5774868 11.90050541 681.12309227 12.50378666 680.65492821 13.12534916 C680.21986961 13.72863041 679.78481102 14.33191166 679.33656883 14.95347416 C676.60960722 18.67022185 673.67160354 21.92073482 670.34242821 25.12534916 C668.0550114 27.75934428 666.26818671 30.25758675 664.55727196 33.30503666 C662.27162721 37.34421839 659.66279101 41.10112439 656.96742821 44.87534916 C656.19012352 45.97073002 656.19012352 45.97073002 655.39711571 47.08823979 C650.86172356 53.45398663 646.21922409 59.73906089 641.56899071 66.02110112 C633.45426017 77.00269235 625.50922853 88.09903994 618.15883446 99.60972416 C616.34242821 102.12534916 616.34242821 102.12534916 613.89711571 104.56284916 C611.15430396 107.31404871 609.08250491 110.16138568 606.90492821 113.37534916 C606.51224754 113.9510767 606.11956688 114.52680424 605.7149868 115.11997807 C603.60139624 118.2265656 601.52810845 121.35855842 599.46742821 124.50034916 C596.61025289 128.80225437 593.61494834 133.00124373 590.59242821 137.18784916 C589.86563866 138.20854496 589.86563866 138.20854496 589.12416649 139.24986088 C587.91356109 140.91258427 586.63343343 142.52424954 585.34242821 144.12534916 C584.68242821 144.12534916 584.02242821 144.12534916 583.34242821 144.12534916 C583.09492821 144.86784916 582.84742821 145.61034916 582.59242821 146.37534916 C581.2509552 149.32658978 579.73337294 150.9734989 577.34242821 153.12534916 C577.67242821 150.81534916 578.00242821 148.50534916 578.34242821 146.12534916 C579.33242821 145.79534916 580.32242821 145.46534916 581.34242821 145.12534916 C582.03174612 143.46792253 582.6925822 141.79864603 583.34242821 140.12534916 C584.87278479 137.64595646 586.57159169 135.29698054 588.27992821 132.93784916 C588.72272118 132.3094312 589.16551414 131.68101323 589.62172508 131.03355229 C591.699324 128.13853741 593.34966244 126.12052634 596.34242821 124.12534916 C597.39251474 122.15118649 598.39230696 120.14952051 599.34242821 118.12534916 C600.00242821 117.13534916 600.66242821 116.14534916 601.34242821 115.12534916 C602.00242821 115.12534916 602.66242821 115.12534916 603.34242821 115.12534916 C603.34242821 114.13534916 603.34242821 113.14534916 603.34242821 112.12534916 C604.00242821 112.12534916 604.66242821 112.12534916 605.34242821 112.12534916 C605.67242821 111.13534916 606.00242821 110.14534916 606.34242821 109.12534916 C607.00242821 109.12534916 607.66242821 109.12534916 608.34242821 109.12534916 C608.67242821 107.80534916 609.00242821 106.48534916 609.34242821 105.12534916 C610.00242821 105.12534916 610.66242821 105.12534916 611.34242821 105.12534916 C611.34242821 104.13534916 611.34242821 103.14534916 611.34242821 102.12534916 C612.5028629 100.99904491 613.66666853 99.87602609 614.84633446 98.76988041 C618.46431687 94.79293369 620.90172677 89.75749573 623.47133446 85.06284916 C625.41315125 81.5295041 627.45231428 78.91580399 630.34242821 76.12534916 C630.67242821 75.13534916 631.00242821 74.14534916 631.34242821 73.12534916 C632.00242821 73.12534916 632.66242821 73.12534916 633.34242821 73.12534916 C633.67242821 72.13534916 634.00242821 71.14534916 634.34242821 70.12534916 C635.00242821 70.12534916 635.66242821 70.12534916 636.34242821 70.12534916 C636.45264305 69.32097416 636.45264305 69.32097416 636.56508446 68.50034916 C637.65783978 65.16167964 639.62315459 62.8860194 641.77992821 60.12534916 C645.49256232 55.39068222 645.49256232 55.39068222 648.34242821 50.12534916 C649.00242821 50.12534916 649.66242821 50.12534916 650.34242821 50.12534916 C650.34242821 49.46534916 650.34242821 48.80534916 650.34242821 48.12534916 C651.00242821 47.79534916 651.66242821 47.46534916 652.34242821 47.12534916 C652.99456112 45.10071661 652.99456112 45.10071661 653.34242821 43.12534916 C654.00242821 43.12534916 654.66242821 43.12534916 655.34242821 43.12534916 C655.56285789 42.44859135 655.78328758 41.77183354 656.01039696 41.07456791 C657.73462445 37.25699678 660.09745553 34.23589012 662.65492821 30.93784916 C663.73188485 29.52618297 664.8073473 28.1133759 665.88149071 26.69956791 C666.44384422 25.96012944 667.00619774 25.22069096 667.58559227 24.45884526 C670.62032186 20.42800237 673.57695152 16.34127607 676.52992821 12.25034916 C677.09429588 11.47151371 677.65866356 10.69267827 678.24013329 9.89024174 C678.7624453 9.16603032 679.28475731 8.44181889 679.82289696 7.69566166 C680.28591209 7.05386967 680.74892723 6.41207768 681.22597313 5.75083745 C682.40644163 4.11211729 682.40644163 4.11211729 683.34242821 2.12534916 C343.27742821 2.62034916 343.27742821 2.62034916 -3.65757179 3.12534916 C0.63789435 8.85263736 4.97841272 14.34752224 9.58461571 19.80503666 C11.34242821 22.12534916 11.34242821 22.12534916 11.34242821 24.12534916 C7.37314063 22.55417283 5.14577014 19.97088223 2.34242821 16.81284916 C1.49680321 15.86796635 0.65117821 14.92308354 -0.22007179 13.94956791 C-6.62136407 6.53268599 -6.62136407 6.53268599 -6.90757179 3.31284916 C-6.82507179 2.59097416 -6.74257179 1.86909916 -6.65757179 1.12534916 C-4.23355915 -0.08665716 -2.70912184 0.00021401 0 0 Z " fill="#14223B" transform="translate(32.65757179260254,75.8746508359909)"/>
<path d="M0 0 C6.01675393 2.45127012 9.78235553 7.82373002 13.75 12.75 C16.26678089 15.97012775 16.26678089 15.97012775 19 19 C21.26721594 19.10323075 23.53772232 19.13402397 25.80728245 19.1386652 C26.89294912 19.14292853 26.89294912 19.14292853 28.00054845 19.14727798 C30.45664002 19.15568382 32.91268478 19.15689776 35.36878967 19.15821838 C37.13506844 19.16277974 38.90134612 19.16777912 40.66762251 19.17318195 C45.54523437 19.18682111 50.42283923 19.19419804 55.30046523 19.20060861 C60.55135718 19.20858731 65.80223443 19.22229372 71.05311584 19.23532104 C80.15860091 19.25711985 89.26408745 19.27525183 98.36958504 19.29092598 C111.5347695 19.3135937 124.69993771 19.34174076 137.86510842 19.37124526 C159.22232098 19.41895926 180.57954016 19.46221308 201.93676758 19.50268555 C222.68905148 19.54202113 243.44132947 19.58344268 264.19360352 19.62768555 C265.4717749 19.63040982 266.74994628 19.63313409 268.06685013 19.63594092 C274.47876207 19.64962008 280.89067392 19.66334041 287.30258572 19.67708123 C340.53504485 19.7911058 393.76751675 19.89790188 447 20 C445.390625 26.6953125 445.390625 26.6953125 441.875 29.4375 C440.92625 29.953125 439.9775 30.46875 439 31 C440.49874127 27.88722968 442.21164637 24.95445819 444 22 C443.1026115 22.0018986 442.20522299 22.0037972 441.2806409 22.00575334 C388.12974172 22.11757039 334.97885497 22.20339566 281.82786177 22.25532665 C275.45026377 22.26158041 269.07266601 22.268052 262.69506836 22.2746582 C260.79051877 22.27662553 260.79051877 22.27662553 258.84749343 22.2786326 C238.27111382 22.30040707 217.69480384 22.33983984 197.11846558 22.38576398 C176.0154642 22.43247181 154.91249937 22.46028338 133.80944842 22.47044247 C120.78088649 22.4773134 107.75252134 22.49903796 94.72401997 22.53958233 C85.79777317 22.56595066 76.87162856 22.57401441 67.94534562 22.56750689 C62.79028777 22.56429479 57.63557452 22.5693225 52.48057747 22.59602737 C47.76463758 22.62028016 43.04927545 22.62163966 38.33330949 22.60449447 C36.62393358 22.60237411 34.91452226 22.60878426 33.2052165 22.62441591 C30.88697192 22.64438993 28.57083174 22.63372905 26.25262165 22.61523914 C24.96347113 22.61713775 23.67432061 22.61903635 22.34610492 22.62099248 C18.12225841 21.83710286 16.71524884 20.24509318 14 17 C13.33097656 16.28199219 12.66195312 15.56398437 11.97265625 14.82421875 C7.71345459 10.0598357 3.73218132 5.18829752 0 0 Z " fill="#1C304D" transform="translate(89,156)"/>
<path d="M0 0 C0.66 0 1.32 0 2 0 C2.61734968 4.34614174 1.20821737 6.68726883 -1.31054688 10.171875 C-1.99213867 11.07679687 -1.99213867 11.07679687 -2.6875 12 C-3.12255859 12.60328125 -3.55761719 13.2065625 -4.00585938 13.828125 C-6.73282099 17.54487268 -9.67082467 20.79538565 -13 24 C-15.28741681 26.63399511 -17.0742415 29.13223759 -18.78515625 32.1796875 C-21.070801 36.21886923 -23.6796372 39.97577523 -26.375 43.75 C-26.89320313 44.48025391 -27.41140625 45.21050781 -27.9453125 45.96289062 C-32.48070465 52.32863746 -37.12320411 58.61371172 -41.7734375 64.89575195 C-49.88816804 75.87734319 -57.83319968 86.97369078 -65.18359375 98.484375 C-67 101 -67 101 -69.4453125 103.4375 C-72.18812424 106.18869955 -74.25992329 109.03603652 -76.4375 112.25 C-77.026521 113.11359131 -77.026521 113.11359131 -77.62744141 113.99462891 C-79.74103197 117.10121643 -81.81431976 120.23320926 -83.875 123.375 C-86.73217531 127.6769052 -89.72747987 131.87589457 -92.75 136.0625 C-93.23452637 136.74296387 -93.71905273 137.42342773 -94.21826172 138.12451172 C-95.42886712 139.7872351 -96.70899477 141.39890038 -98 143 C-98.66 143 -99.32 143 -100 143 C-100.2475 143.7425 -100.495 144.485 -100.75 145.25 C-102.09147301 148.20124062 -103.60905526 149.84814974 -106 152 C-105.67 149.69 -105.34 147.38 -105 145 C-104.01 144.67 -103.02 144.34 -102 144 C-101.31068209 142.34257337 -100.64984601 140.67329686 -100 139 C-98.46964342 136.5206073 -96.77083652 134.17163138 -95.0625 131.8125 C-94.61970703 131.18408203 -94.17691406 130.55566406 -93.72070312 129.90820312 C-91.64310421 127.01318824 -89.99276576 124.99517718 -87 123 C-85.94991347 121.02583732 -84.95012124 119.02417134 -84 117 C-83.34 116.01 -82.68 115.02 -82 114 C-81.34 114 -80.68 114 -80 114 C-80 113.01 -80 112.02 -80 111 C-79.34 111 -78.68 111 -78 111 C-77.505 109.515 -77.505 109.515 -77 108 C-76.34 108 -75.68 108 -75 108 C-74.67 106.68 -74.34 105.36 -74 104 C-73.34 104 -72.68 104 -72 104 C-72 103.01 -72 102.02 -72 101 C-70.83956531 99.87369574 -69.67575968 98.75067692 -68.49609375 97.64453125 C-64.87811134 93.66758453 -62.44070143 88.63214657 -59.87109375 83.9375 C-57.92927696 80.40415493 -55.89011393 77.79045482 -53 75 C-52.505 73.515 -52.505 73.515 -52 72 C-51.34 72 -50.68 72 -50 72 C-49.505 70.515 -49.505 70.515 -49 69 C-48.34 69 -47.68 69 -47 69 C-46.92652344 68.46375 -46.85304688 67.9275 -46.77734375 67.375 C-45.68458843 64.03633048 -43.71927362 61.76067023 -41.5625 59 C-37.84986589 54.26533305 -37.84986589 54.26533305 -35 49 C-34.34 49 -33.68 49 -33 49 C-33 48.34 -33 47.68 -33 47 C-32.34 46.67 -31.68 46.34 -31 46 C-30.34786708 43.97536745 -30.34786708 43.97536745 -30 42 C-29.34 42 -28.68 42 -28 42 C-27.66935547 40.98486328 -27.66935547 40.98486328 -27.33203125 39.94921875 C-25.60777303 36.13157958 -23.24480331 33.11073099 -20.6875 29.8125 C-19.61063658 28.39945967 -18.53517018 26.98535383 -17.4609375 25.5703125 C-16.89858398 24.83071289 -16.33623047 24.09111328 -15.75683594 23.32910156 C-12.72929233 19.31537644 -9.76592247 15.2559354 -6.8125 11.1875 C-6.24813232 10.41704346 -5.68376465 9.64658691 -5.10229492 8.8527832 C-4.57998291 8.13179443 -4.0576709 7.41080566 -3.51953125 6.66796875 C-2.82500854 5.71313599 -2.82500854 5.71313599 -2.11645508 4.73901367 C-0.82418016 2.88323883 -0.82418016 2.88323883 0 0 Z " fill="#1B325A" transform="translate(716,77)"/>
<path d="M0 0 C140.91 0 281.82 0 427 0 C425 7 425 7 422.375 8.9375 C421.59125 9.288125 420.8075 9.63875 420 10 C421.51325083 6.85709443 423.188065 4.01989166 425 1 C284.75 1 144.5 1 0 1 C0 0.67 0 0.34 0 0 Z " fill="#000109" transform="translate(108,177)"/>
<path d="M0 0 C0.33 0.66 0.66 1.32 1 2 C0.67 2.66 0.34 3.32 0 4 C105.6 4 211.2 4 320 4 C319.67 2.68 319.34 1.36 319 0 C319.66 0.33 320.32 0.66 321 1 C321 2.32 321 3.64 321 5 C214.74 5.33 108.48 5.66 -1 6 C-1.33 5.01 -1.66 4.02 -2 3 C-1.34 2.01 -0.68 1.02 0 0 Z " fill="#D7D7D7" transform="translate(412,558)"/>
<path d="M0 0 C0 3 0 3 -2 7 C-38.96 7 -75.92 7 -114 7 C-113.67 5.68 -113.34 4.36 -113 3 C-113 3.66 -113 4.32 -113 5 C-99.15239699 4.96279968 -85.30505643 4.90262739 -71.45767021 4.81609726 C-65.02775933 4.77658709 -58.59798613 4.74441578 -52.16796875 4.72900391 C-45.96270963 4.71386095 -39.75782895 4.67945659 -33.55273819 4.63169098 C-31.18530695 4.61685295 -28.81782168 4.6089576 -26.45034409 4.60811615 C-23.13429153 4.60575214 -19.81928959 4.57871619 -16.50341797 4.54589844 C-15.03498192 4.55344398 -15.03498192 4.55344398 -13.53688049 4.56114197 C-7.72446103 4.47213643 -4.49053409 3.76689575 0 0 Z " fill="#336071" transform="translate(291,667)"/>
<path d="M0 0 C0.33 0.66 0.66 1.32 1 2 C26.37305904 1.89285979 51.7460878 1.78011631 77.11909199 1.66066074 C88.89961561 1.60532963 100.68014225 1.5518478 112.46069336 1.50268555 C122.72591723 1.45984236 132.99111881 1.41356401 143.25630826 1.36312145 C148.69406668 1.33652162 154.13182069 1.31166854 159.56960487 1.29092598 C164.68389517 1.2713632 169.79814304 1.24722044 174.91239548 1.21950912 C176.79298191 1.2101368 178.67357765 1.20246217 180.55417824 1.19658089 C183.11492638 1.18832282 185.67557148 1.17404693 188.23628235 1.15821838 C188.98627874 1.15724028 189.73627514 1.15626217 190.50899869 1.15525442 C193.6106798 1.13047464 196.03392047 0.98869318 199 0 C198.34 1.32 197.68 2.64 197 4 C131.99 4 66.98 4 0 4 C0 2.68 0 1.36 0 0 Z " fill="#D7D7D7" transform="translate(16,560)"/>
<path d="M0 0 C30.03 0 60.06 0 91 0 C91 0.33 91 0.66 91 1 C61.96 1.33 32.92 1.66 3 2 C7.29546614 7.72728819 11.63598452 13.22217307 16.2421875 18.6796875 C18 21 18 21 18 23 C14.03071242 21.42882367 11.80334193 18.84553306 9 15.6875 C8.154375 14.74261719 7.30875 13.79773438 6.4375 12.82421875 C5.633125 11.89222656 4.82875 10.96023437 4 10 C3.236875 9.16082031 2.47375 8.32164063 1.6875 7.45703125 C0 5 0 5 0 0 Z " fill="#2A447A" transform="translate(26,77)"/>
<path d="M0 0 C0.66 0 1.32 0 2 0 C1.43870271 4.28915855 -1.18464106 7.31911994 -3.6875 10.6875 C-4.61048332 11.95231696 -5.53236302 13.21794003 -6.453125 14.484375 C-6.89720703 15.09345703 -7.34128906 15.70253906 -7.79882812 16.33007812 C-9.23697456 18.32945244 -10.59701269 20.37157249 -11.9375 22.4375 C-14.7657912 26.72476562 -17.74322658 30.8993872 -20.75 35.0625 C-21.23460693 35.74304443 -21.71921387 36.42358887 -22.21850586 37.12475586 C-23.42900629 38.78741443 -24.70906644 40.39898927 -26 42 C-26.66 42 -27.32 42 -28 42 C-28.2475 42.7425 -28.495 43.485 -28.75 44.25 C-30.09147301 47.20124062 -31.60905526 48.84814974 -34 51 C-33.67 48.69 -33.34 46.38 -33 44 C-31.515 43.505 -31.515 43.505 -30 43 C-29.31068209 41.34257337 -28.64984601 39.67329686 -28 38 C-26.46964342 35.5206073 -24.77083652 33.17163138 -23.0625 30.8125 C-22.61970703 30.18408203 -22.17691406 29.55566406 -21.72070312 28.90820312 C-19.64310421 26.01318824 -17.99276576 23.99517718 -15 22 C-13.94991347 20.02583732 -12.95012124 18.02417134 -12 16 C-11.34 15.01 -10.68 14.02 -10 13 C-9.34 13 -8.68 13 -8 13 C-8 12.01 -8 11.02 -8 10 C-7.34 10 -6.68 10 -6 10 C-5.67 9.01 -5.34 8.02 -5 7 C-4.34 7 -3.68 7 -3 7 C-2.67 5.68 -2.34 4.36 -2 3 C-1.34 3 -0.68 3 0 3 C0 2.01 0 1.02 0 0 Z " fill="#1C395D" transform="translate(644,178)"/>
<path d="M0 0 C0.66 0 1.32 0 2 0 C0.52563397 3.26892266 -1.34352006 5.80381807 -3.625 8.5625 C-9.36389424 15.64012364 -14.7324041 22.89469027 -19.5625 30.625 C-22.70244076 35.6301808 -25.95098396 40.67321505 -30 45 C-30.66 45 -31.32 45 -32 45 C-30.17782568 39.33707502 -26.47648607 35.0879228 -22.90039062 30.43945312 C-22.41634766 29.79814453 -21.93230469 29.15683594 -21.43359375 28.49609375 C-20.99072021 27.92044678 -20.54784668 27.3447998 -20.09155273 26.75170898 C-18.90543496 24.84824331 -18.42770864 23.19016839 -18 21 C-17.34 21 -16.68 21 -16 21 C-16 20.01 -16 19.02 -16 18 C-15.34 18 -14.68 18 -14 18 C-14 17.34 -14 16.68 -14 16 C-13.01 15.67 -12.02 15.34 -11 15 C-10.67 14.01 -10.34 13.02 -10 12 C-9.67 11.01 -9.34 10.02 -9 9 C-8.01 8.67 -7.02 8.34 -6 8 C-4.40557347 6.13704948 -4.40557347 6.13704948 -2.9375 3.9375 C-1.40234375 1.71484375 -1.40234375 1.71484375 0 0 Z " fill="#1B3954" transform="translate(588,258)"/>
<path d="M0 0 C0 3.10981343 -0.46713709 4.39396369 -1.8125 7.125 C-2.31716797 8.18074219 -2.31716797 8.18074219 -2.83203125 9.2578125 C-4 11 -4 11 -7 12 C-7 12.99 -7 13.98 -7 15 C-8.33333333 16.33333333 -9.66666667 17.66666667 -11 19 C-11.94365381 20.65952911 -12.88464726 22.32087182 -13.79296875 24 C-15.71420607 27.18340941 -18.07091674 30.00638892 -20.4140625 32.88671875 C-22.04809184 34.92371036 -22.04809184 34.92371036 -23.046875 37.16015625 C-24.41242173 39.79610917 -26.42912543 40.64690812 -29 42 C-25.49115128 34.68989849 -21.15652371 28.28663619 -16.3125 21.8125 C-15.69616699 20.98258545 -15.07983398 20.1526709 -14.44482422 19.29760742 C-12.63414209 16.86185948 -10.81807307 14.43023439 -9 12 C-8.49549316 11.32453125 -7.99098633 10.6490625 -7.47119141 9.953125 C-4.988267 6.62975904 -2.49858597 3.31161791 0 0 Z " fill="#213C57" transform="translate(527,187)"/>
<path d="M0 0 C3.73151108 1.24383703 4.74534148 2.84347807 7 6 C7.33 6.99 7.66 7.98 8 9 C8.969375 9.78375 9.93875 10.5675 10.9375 11.375 C18.91001529 17.95600851 24.83975644 27.53585057 30.52734375 36.07421875 C32.02883875 38.25322076 32.02883875 38.25322076 35 40 C36.75 42.5 36.75 42.5 38 45 C37.505 45.99 37.505 45.99 37 47 C31.42201849 41.02260747 26.24433688 34.86434387 21.24462891 28.40380859 C17.53436366 23.62753914 13.67344519 19.00075752 9.70361328 14.43823242 C5.86508744 9.98458607 2.47071805 5.35322245 0 0 Z " fill="#182541" transform="translate(44,100)"/>
<path d="M0 0 C0.66 0 1.32 0 2 0 C2.61734968 4.34614174 1.20821737 6.68726883 -1.31054688 10.171875 C-1.76494141 10.77515625 -2.21933594 11.3784375 -2.6875 12 C-3.12255859 12.60328125 -3.55761719 13.2065625 -4.00585938 13.828125 C-6.73282099 17.54487268 -9.67082467 20.79538565 -13 24 C-15.35881803 26.7162147 -17.30363889 29.43785659 -19.0625 32.5625 C-20.5737997 35.24383817 -22.0853771 37.60672137 -24 40 C-24.99 39.67 -25.98 39.34 -27 39 C-22.45920336 32.29848612 -17.84928021 25.69952556 -12.875 19.3125 C-5.32497349 10.29209434 -5.32497349 10.29209434 0 0 Z " fill="#1B2F57" transform="translate(716,77)"/>
<path d="M0 0 C22.11 0 44.22 0 67 0 C65 7 65 7 62.375 8.9375 C61.59125 9.288125 60.8075 9.63875 60 10 C61.51325083 6.85709443 63.188065 4.01989166 65 1 C43.55 1 22.1 1 0 1 C0 0.67 0 0.34 0 0 Z " fill="#080913" transform="translate(468,177)"/>
<path d="M0 0 C0 3.50274561 -0.62387634 4.20888246 -2.66796875 6.94921875 C-3.23193359 7.71556641 -3.79589844 8.48191406 -4.37695312 9.27148438 C-4.97443359 10.06876953 -5.57191406 10.86605469 -6.1875 11.6875 C-10.38105981 17.33033912 -14.35110626 22.98722783 -18 29 C-18.66 28.34 -19.32 27.68 -20 27 C-19.60167969 26.41992188 -19.20335937 25.83984375 -18.79296875 25.2421875 C-16.40292955 21.7181881 -14.16547914 18.34321599 -12.3125 14.5 C-11 12 -11 12 -8 11 C-7.9175 10.278125 -7.835 9.55625 -7.75 8.8125 C-6.83749583 5.39060935 -5.41828071 3.56053252 -3 1 C-2.01 0.67 -1.02 0.34 0 0 Z " fill="#1C3C5C" transform="translate(609,229)"/>
<path d="M0 0 C0.99 0.495 0.99 0.495 2 1 C1.67 1.66 1.34 2.32 1 3 C1.5671875 3.22042969 2.134375 3.44085938 2.71875 3.66796875 C5.71171604 5.41557392 7.3550867 7.5983032 9.5 10.3125 C10.62921875 11.72982422 10.62921875 11.72982422 11.78125 13.17578125 C12.87953125 14.57376953 12.87953125 14.57376953 14 16 C14.7528125 16.90105469 15.505625 17.80210938 16.28125 18.73046875 C18 21 18 21 18 23 C14.03071242 21.42882367 11.80334193 18.84553306 9 15.6875 C8.154375 14.74261719 7.30875 13.79773438 6.4375 12.82421875 C0.03620772 5.40733683 0.03620772 5.40733683 -0.25 2.1875 C-0.1675 1.465625 -0.085 0.74375 0 0 Z " fill="#18274C" transform="translate(26,77)"/>
<path d="M0 0 C0.66 0 1.32 0 2 0 C0.45463516 3.30708075 -1.42794001 6.24726899 -3.5 9.25 C-4.1084375 10.14203125 -4.716875 11.0340625 -5.34375 11.953125 C-6.16359375 12.96632813 -6.16359375 12.96632813 -7 14 C-7.66 14 -8.32 14 -9 14 C-9.25523437 14.71542969 -9.51046875 15.43085938 -9.7734375 16.16796875 C-11.0876888 19.20246618 -12.69496016 21.63188911 -14.625 24.3125 C-15.25664062 25.19550781 -15.88828125 26.07851563 -16.5390625 26.98828125 C-17.26222656 27.98408203 -17.26222656 27.98408203 -18 29 C-18 26 -18 26 -16 23 C-15.690625 21.80375 -15.38125 20.6075 -15.0625 19.375 C-14.5365625 17.704375 -14.5365625 17.704375 -14 16 C-13.01 15.67 -12.02 15.34 -11 15 C-11 14.34 -11 13.68 -11 13 C-10.01 13 -9.02 13 -8 13 C-7.731875 12.43796875 -7.46375 11.8759375 -7.1875 11.296875 C-5.9196021 8.84449354 -4.51027658 6.56072317 -3 4.25 C-2.484375 3.45078125 -1.96875 2.6515625 -1.4375 1.828125 C-0.963125 1.22484375 -0.48875 0.6215625 0 0 Z " fill="#264B61" transform="translate(474,415)"/>
<path d="M0 0 C0.66 0.33 1.32 0.66 2 1 C-0.0612766 4.02166977 -2.1242456 7.04218045 -4.1875 10.0625 C-5.0547168 11.33383789 -5.0547168 11.33383789 -5.93945312 12.63085938 C-7.08216808 14.30296771 -8.22779211 15.97309209 -9.37646484 17.64111328 C-10.41514506 19.15024534 -11.44736999 20.66385372 -12.47119141 22.18310547 C-13.59720858 23.82436958 -14.79173257 25.41830712 -16 27 C-16.66 27 -17.32 27 -18 27 C-14.8610155 20.46044896 -11.07785853 14.45523191 -6.875 8.5625 C-6.43285156 7.92634766 -5.99070312 7.29019531 -5.53515625 6.63476562 C-4.40917283 5.05124514 -3.2101998 3.52012902 -2 2 C-1.34 2 -0.68 2 0 2 C0 1.34 0 0.68 0 0 Z " fill="#1A2E3E" transform="translate(493,233)"/>
<path d="M0 0 C-1.46710942 4.84146109 -4.3512744 8.55948972 -8 12 C-8.66 12 -9.32 12 -10 12 C-10.0825 12.5775 -10.165 13.155 -10.25 13.75 C-11.20531013 16.6159304 -12.78469173 17.9990764 -15 20 C-15.1875 17.625 -15.1875 17.625 -15 15 C-14.01 14.34 -13.02 13.68 -12 13 C-11.31867549 11.33927151 -10.65257873 9.672233 -10 8 C-8.6875 6.5 -8.6875 6.5 -7 5 C-6.154375 4.113125 -5.30875 3.22625 -4.4375 2.3125 C-2 0 -2 0 0 0 Z " fill="#2E5D82" transform="translate(536,332)"/>
<path d="M0 0 C1 3 1 3 -0.4375 6.0625 C-8.45319507 19.15106502 -8.45319507 19.15106502 -14 21 C-12.3825067 15.80968922 -9.14487963 11.93227414 -5.875 7.6875 C-5.31167969 6.94693359 -4.74835938 6.20636719 -4.16796875 5.44335938 C-2.78365711 3.62498391 -1.39425774 1.81075326 0 0 Z " fill="#31586D" transform="translate(362,413)"/>
<path d="M0 0 C0.66 0 1.32 0 2 0 C2.66372785 4.51679735 1.11847942 6.83950702 -1.40820312 10.3671875 C-1.87162109 10.98851563 -2.33503906 11.60984375 -2.8125 12.25 C-3.26431641 12.88679688 -3.71613281 13.52359375 -4.18164062 14.1796875 C-7.59623829 18.86541276 -7.59623829 18.86541276 -11 20 C-10.4205384 15.7885559 -7.93033098 12.78202668 -5.5 9.4375 C-2.24656019 5.00051757 -2.24656019 5.00051757 0 0 Z " fill="#152545" transform="translate(716,77)"/>
<path d="M0 0 C0.66 0.33 1.32 0.66 2 1 C-9.11721225 19.0781415 -9.11721225 19.0781415 -15 23 C-13.31326082 18.50202887 -11.18326108 14.27113698 -9 10 C-8.34 10 -7.68 10 -7 10 C-5.18290825 7.75354465 -5.18290825 7.75354465 -3.375 5 C-2.74335938 4.071875 -2.11171875 3.14375 -1.4609375 2.1875 C-0.73777344 1.1046875 -0.73777344 1.1046875 0 0 Z " fill="#193344" transform="translate(510,365)"/>
<path d="M0 0 C0.66 0.33 1.32 0.66 2 1 C-0.28780526 4.45844847 -2.58573903 7.90985715 -4.89648438 11.35302734 C-5.92989211 12.89536552 -6.95735319 14.44168344 -7.984375 15.98828125 C-8.58765625 16.87902344 -9.1909375 17.76976562 -9.8125 18.6875 C-10.62654297 19.89986328 -10.62654297 19.89986328 -11.45703125 21.13671875 C-13 23 -13 23 -16 24 C-14.41417083 19.12990923 -11.6077252 15.47530186 -8.5625 11.4375 C-8.07201172 10.77814453 -7.58152344 10.11878906 -7.07617188 9.43945312 C-5.72281867 7.62219747 -4.36282367 5.81015866 -3 4 C-2.39027344 3.18660156 -1.78054688 2.37320313 -1.15234375 1.53515625 C-0.77207031 1.02855469 -0.39179688 0.52195312 0 0 Z " fill="#989898" transform="translate(432,529)"/>
<path d="M0 0 C0.66 0 1.32 0 2 0 C1.34 1.65 0.68 3.3 0 5 C-0.66 5 -1.32 5 -2 5 C-2.2475 6.27875 -2.495 7.5575 -2.75 8.875 C-3.72734157 12.83288677 -3.72734157 12.83288677 -5.9375 14.1875 C-6.618125 14.455625 -7.29875 14.72375 -8 15 C-9.02304948 16.65261839 -10.02616054 18.31791365 -11 20 C-11.66 20 -12.32 20 -13 20 C-11.39377152 15.07614484 -8.54664858 11.30086921 -5.5 7.1875 C-5.00113281 6.49462891 -4.50226563 5.80175781 -3.98828125 5.08789062 C-3.50746094 4.43369141 -3.02664063 3.77949219 -2.53125 3.10546875 C-2.09361328 2.50887451 -1.65597656 1.91228027 -1.20507812 1.29760742 C-0.80740234 0.86939697 -0.40972656 0.44118652 0 0 Z " fill="#51A0BD" transform="translate(364,564)"/>
<path d="M0 0 C0.66 0.33 1.32 0.66 2 1 C0.55008333 3.33896022 -0.90925408 5.67099268 -2.375 8 C-2.7875 8.66773438 -3.2 9.33546875 -3.625 10.0234375 C-4.69660955 11.71727194 -5.84330499 13.36308864 -7 15 C-7.66 15 -8.32 15 -9 15 C-9.433125 15.9590625 -9.433125 15.9590625 -9.875 16.9375 C-11 19 -11 19 -13 20 C-10.66666667 15.33333333 -8.33333333 10.66666667 -6 6 C-5.01 6 -4.02 6 -3 6 C-2.690625 5.195625 -2.38125 4.39125 -2.0625 3.5625 C-1 1 -1 1 0 0 Z " fill="#2A5364" transform="translate(356,578)"/>
<path d="M0 0 C0.99 0 1.98 0 3 0 C1.48376838 4.36019038 -0.81963954 7.98603262 -3.4375 11.75 C-4.03014648 12.63365234 -4.03014648 12.63365234 -4.63476562 13.53515625 C-7.63506798 17.87835599 -7.63506798 17.87835599 -11 19 C-9.68729158 15.06187473 -7.74737471 12.14037238 -5.30859375 8.84765625 C-3.30599268 6.0201031 -1.6713061 3.03311107 0 0 Z " fill="#152B49" transform="translate(657,160)"/>
<path d="M0 0 C0 5.26422535 -2.30112138 8.71073802 -5.5 12.75 C-6.1084375 13.52859375 -6.716875 14.3071875 -7.34375 15.109375 C-9 17 -9 17 -11 18 C-10.51346311 13.30839426 -8.34585627 10.34476581 -5.5 6.75 C-5.08363281 6.20859375 -4.66726562 5.6671875 -4.23828125 5.109375 C-1.28039148 1.28039148 -1.28039148 1.28039148 0 0 Z " fill="#427180" transform="translate(208,624)"/>
<path d="M0 0 C0 3.10981343 -0.46713709 4.39396369 -1.8125 7.125 C-2.31716797 8.18074219 -2.31716797 8.18074219 -2.83203125 9.2578125 C-4 11 -4 11 -7 12 C-7 12.99 -7 13.98 -7 15 C-9.3125 17.6875 -9.3125 17.6875 -12 20 C-12.99 20 -13.98 20 -15 20 C-12.68887531 16.85315414 -10.37587072 13.70769499 -8.0625 10.5625 C-7.40314453 9.66466797 -6.74378906 8.76683594 -6.06445312 7.84179688 C-5.43603516 6.98779297 -4.80761719 6.13378906 -4.16015625 5.25390625 C-3.57886963 4.46314697 -2.99758301 3.6723877 -2.39868164 2.85766602 C-1 1 -1 1 0 0 Z " fill="#192F44" transform="translate(527,187)"/>
<path d="M0 0 C1 2 1 2 0.375 4.3125 C-1.27979977 7.54688137 -3.40374265 9.46412072 -6 12 C-6.91731706 13.25541393 -7.81312581 14.52680777 -8.6875 15.8125 C-9.450625 16.864375 -10.21375 17.91625 -11 19 C-11.66 19 -12.32 19 -13 19 C-11.52239021 14.65550599 -9.27984593 11.4452532 -6.5 7.8125 C-5.7059375 6.76707031 -4.911875 5.72164062 -4.09375 4.64453125 C-2 2 -2 2 0 0 Z " fill="#5AB6D1" transform="translate(327,616)"/>
<path d="M0 0 C0.33 0 0.66 0 1 0 C1.33573433 3.60914402 1.30857109 5.50153901 -0.625 8.625 C-3.20798262 11.20798262 -5.89204832 13.09284783 -9 15 C-9 10.93968076 -6.94806989 8.88586698 -4.5625 5.8125 C-4.14162109 5.25369141 -3.72074219 4.69488281 -3.28710938 4.11914062 C-2.22142438 2.72266701 -1.11398251 1.35825845 0 0 Z " fill="#4A94AD" transform="translate(338,600)"/>
<path d="M0 0 C0 3.34050586 -0.43505168 3.98685929 -2.30078125 6.6171875 C-3.02491211 7.65166016 -3.02491211 7.65166016 -3.76367188 8.70703125 C-4.27478516 9.42246094 -4.78589844 10.13789063 -5.3125 10.875 C-6.30992396 12.28812453 -7.30605018 13.70216608 -8.30078125 15.1171875 C-8.7695166 15.78331055 -9.23825195 16.44943359 -9.72119141 17.13574219 C-11.25098758 19.36589178 -12.65297602 21.65535076 -14 24 C-14.66 23.34 -15.32 22.68 -16 22 C-15.37351563 21.10796875 -14.74703125 20.2159375 -14.1015625 19.296875 C-13.27590274 18.11468035 -12.45038961 16.93238328 -11.625 15.75 C-11.2125 15.16347656 -10.8 14.57695312 -10.375 13.97265625 C-8.35295912 11.07004918 -6.45533455 8.23052285 -5 5 C-4.34 5 -3.68 5 -3 5 C-3 4.01 -3 3.02 -3 2 C-2.01 1.34 -1.02 0.68 0 0 Z " fill="#999999" transform="translate(217,415)"/>
<path d="M0 0 C0.99 0 1.98 0 3 0 C1.45600247 3.28771612 -0.39621687 6.24733837 -2.4375 9.25 C-3.03433594 10.14203125 -3.63117187 11.0340625 -4.24609375 11.953125 C-5.11427734 12.96632812 -5.11427734 12.96632812 -6 14 C-6.99 14 -7.98 14 -9 14 C-8.45156876 10.16098132 -6.7234735 8.63836495 -4 6 C-3.67 5.01 -3.34 4.02 -3 3 C-2.34 3 -1.68 3 -1 3 C-0.67 2.01 -0.34 1.02 0 0 Z " fill="#172F53" transform="translate(667,146)"/>
<path d="M0 0 C5.93330695 2.4172732 9.85027526 7.83491777 13.875 12.625 C14.67679688 13.56601563 15.47859375 14.50703125 16.3046875 15.4765625 C16.86414063 16.30929688 17.42359375 17.14203125 18 18 C17.67 18.99 17.34 19.98 17 21 C16.443125 20.31035156 15.88625 19.62070313 15.3125 18.91015625 C10.81555696 13.37253551 6.24320704 7.94869855 1.43359375 2.6796875 C0 1 0 1 0 0 Z " fill="#121D2E" transform="translate(89,156)"/>
<path d="M0 0 C0.33 0.66 0.66 1.32 1 2 C0.62488281 2.54527344 0.24976563 3.09054688 -0.13671875 3.65234375 C-3.35394655 8.39309504 -6.27474415 13.16750877 -8.921875 18.25 C-10 20 -10 20 -12 21 C-11.67 18.69 -11.34 16.38 -11 14 C-10.01 13.67 -9.02 13.34 -8 13 C-7.731875 12.319375 -7.46375 11.63875 -7.1875 10.9375 C-5.4996155 6.76220676 -2.77480349 3.51649625 0 0 Z " fill="#224972" transform="translate(622,208)"/>
<path d="M0 0 C0 3 0 3 -2 6 C-4.52197266 6.34057617 -4.52197266 6.34057617 -7.6640625 6.29296875 C-8.78554688 6.28330078 -9.90703125 6.27363281 -11.0625 6.26367188 C-12.238125 6.23853516 -13.41375 6.21339844 -14.625 6.1875 C-16.40003906 6.16719727 -16.40003906 6.16719727 -18.2109375 6.14648438 C-21.14107539 6.11103916 -24.07031459 6.06162769 -27 6 C-27 5.67 -27 5.34 -27 5 C-15.57431386 3.91736307 -15.57431386 3.91736307 -10.125 4.1875 C-5.63085885 4.27754654 -3.43025418 2.81456754 0 0 Z " fill="#5FC1DD" transform="translate(291,667)"/>
<path d="M0 0 C0.66 0 1.32 0 2 0 C0.43006215 5.02380113 -2.60115742 9.0469983 -6 13 C-6.99 13.495 -6.99 13.495 -8 14 C-9.0409066 15.64142963 -10.04504326 17.30712215 -11 19 C-12 17 -12 17 -11.3125 14 C-10 11 -10 11 -8.11328125 10.1015625 C-5.37077163 8.67201035 -4.46637771 6.99952344 -2.875 4.375 C-1.3671875 1.8984375 -1.3671875 1.8984375 0 0 Z " fill="#172D37" transform="translate(383,541)"/>
<path d="M0 0 C0.66 0 1.32 0 2 0 C0.82744291 3.33727786 -0.18868404 5.77437487 -3 8 C-3.66 8 -4.32 8 -5 8 C-5.268125 8.598125 -5.53625 9.19625 -5.8125 9.8125 C-6.98493467 11.97224808 -8.19369282 13.35790256 -10 15 C-9.80046184 10.70992956 -9.36565541 9.33385929 -6.125 6.375 C-5.09375 5.59125 -4.0625 4.8075 -3 4 C-1.99426222 2.67098936 -0.99204592 1.33926199 0 0 Z " fill="#2B5164" transform="translate(410,504)"/>
<path d="M0 0 C0.33 0.66 0.66 1.32 1 2 C0.67 2.66 0.34 3.32 0 4 C9.57 4 19.14 4 29 4 C29 4.33 29 4.66 29 5 C19.1 5.33 9.2 5.66 -1 6 C-1.33 5.01 -1.66 4.02 -2 3 C-1.34 2.01 -0.68 1.02 0 0 Z " fill="#CBCBCB" transform="translate(412,558)"/>
<path d="M0 0 C0 4.03194851 -1.97273776 6.10771993 -4.3125 9.1875 C-4.91868164 10.02571289 -4.91868164 10.02571289 -5.53710938 10.88085938 C-6.73828125 12.48046875 -6.73828125 12.48046875 -9 15 C-9.99 15 -10.98 15 -12 15 C-8.348107 9.58004353 -4.85110358 4.41009417 0 0 Z " fill="#142530" transform="translate(464,274)"/>
<path d="M0 0 C3.27655508 1.40526214 5.15432686 3.02917473 7.4375 5.75 C8.035625 6.45640625 8.63375 7.1628125 9.25 7.890625 C9.8275 8.58671875 10.405 9.2828125 11 10 C11.515625 10.61359375 12.03125 11.2271875 12.5625 11.859375 C13.71475603 13.23422594 14.85842244 14.61626963 16 16 C15.67 16.66 15.34 17.32 15 18 C11.67808436 14.81096099 8.69149534 11.3785473 5.68359375 7.8984375 C4.37056307 6.4178507 2.97987237 5.00602948 1.5625 3.625 C0 2 0 2 0 0 Z " fill="#6A6A6A" transform="translate(284,235)"/>
<path d="M0 0 C0.33 0.66 0.66 1.32 1 2 C-0.95131587 4.81742937 -2.91220744 7.62805665 -4.875 10.4375 C-5.43058594 11.23994141 -5.98617188 12.04238281 -6.55859375 12.86914062 C-7.09355469 13.63291016 -7.62851562 14.39667969 -8.1796875 15.18359375 C-8.67194824 15.89056396 -9.16420898 16.59753418 -9.67138672 17.32592773 C-11 19 -11 19 -13 20 C-11.82343019 15.17606379 -9.84915211 12.39154213 -6.59765625 8.8125 C-4.15292537 6.03901558 -2.1063699 3.03565074 0 0 Z " fill="#132C33" transform="translate(309,644)"/>
<path d="M0 0 C0.33 0.99 0.66 1.98 1 3 C-0.58203125 5.69921875 -0.58203125 5.69921875 -2.8125 8.6875 C-3.90498047 10.17830078 -3.90498047 10.17830078 -5.01953125 11.69921875 C-5.99986328 12.83810547 -5.99986328 12.83810547 -7 14 C-7.66 14 -8.32 14 -9 14 C-9.33 14.66 -9.66 15.32 -10 16 C-9.39520657 12.02159319 -7.37709338 9.4918624 -5 6.3125 C-4.278125 5.33925781 -3.55625 4.36601563 -2.8125 3.36328125 C-1 1 -1 1 0 0 Z " fill="#5CB9D3" transform="translate(309,641)"/>
<path d="M0 0 C0.33 0.99 0.66 1.98 1 3 C-0.36328125 5.33984375 -0.36328125 5.33984375 -2.3125 7.9375 C-4.50194654 10.8819281 -6.47215103 13.65734565 -8 17 C-8.99 17 -9.98 17 -11 17 C-9.24933204 13.11390189 -6.81675994 9.72187742 -4.375 6.25 C-3.95476563 5.64800781 -3.53453125 5.04601562 -3.1015625 4.42578125 C-2.07006863 2.94886957 -1.03535421 1.47420806 0 0 Z " fill="#9C9D9C" transform="translate(40,525)"/>
<path d="M0 0 C0.33 0.66 0.66 1.32 1 2 C-3.95 8.93 -3.95 8.93 -9 16 C-9.33 14.68 -9.66 13.36 -10 12 C-8.42447569 9.72653315 -6.89862082 7.78850864 -5.0625 5.75 C-4.34030273 4.91855469 -4.34030273 4.91855469 -3.60351562 4.0703125 C-2.41359122 2.70366665 -1.20822485 1.35049386 0 0 Z " fill="#173146" transform="translate(546,316)"/>
<path d="M0 0 C0.66 0 1.32 0 2 0 C0.37815499 3.58513106 -1.79256239 6.58992323 -4.125 9.75 C-4.84945312 10.73484375 -5.57390625 11.7196875 -6.3203125 12.734375 C-6.87460938 13.48203125 -7.42890625 14.2296875 -8 15 C-8.66 14.67 -9.32 14.34 -10 14 C-8.52208672 11.85329364 -7.0427346 9.70760477 -5.5625 7.5625 C-5.14162109 6.95083984 -4.72074219 6.33917969 -4.28710938 5.70898438 C-1.11328125 1.11328125 -1.11328125 1.11328125 0 0 Z " fill="#838282" transform="translate(235,530)"/>
<path d="M0 0 C0.33 0.66 0.66 1.32 1 2 C0.07544441 3.508013 -0.8650747 5.00624917 -1.8125 6.5 C-2.33457031 7.3353125 -2.85664063 8.170625 -3.39453125 9.03125 C-3.92433594 9.6809375 -4.45414062 10.330625 -5 11 C-5.99 11 -6.98 11 -8 11 C-6.46457536 6.52167812 -4.39145948 2.19572974 0 0 Z " fill="#386474" transform="translate(269,542)"/>
<path d="M0 0 C2.69269909 0.37301459 3.78389625 0.7601145 5.6328125 2.8125 C6.12523438 3.534375 6.61765625 4.25625 7.125 5 C9.10073376 8.02283894 9.10073376 8.02283894 12 10 C13.6875 12.4375 13.6875 12.4375 15 15 C14.67 15.66 14.34 16.32 14 17 C8.96567535 11.5488903 4.15057415 6.15891648 0 0 Z " fill="#0D1523" transform="translate(67,130)"/>
<path d="M0 0 C3.75637765 2.60859559 5.8803151 5.1409118 8.01953125 9.18359375 C9.4960999 11.91906954 11.24783308 14.434327 13 17 C8.65377412 15.48480199 6.69218328 12.16725241 4.25 8.5 C3.83878906 7.90574219 3.42757812 7.31148438 3.00390625 6.69921875 C0 2.27818729 0 2.27818729 0 0 Z " fill="#828282" transform="translate(677,482)"/>
<path d="M0 0 C3.25516428 3.16474305 6.32008793 6.32752791 9 10 C9 10.66 9 11.32 9 12 C4.7835599 10.43835552 2.58130177 7.58514135 0 4 C0 2.68 0 1.36 0 0 Z " fill="#1D2E51" transform="translate(60,118)"/>
<path d="M0 0 C0.66 0.33 1.32 0.66 2 1 C-0.50433915 5.73041839 -2.84975296 9.48825251 -7 13 C-7.99 13 -8.98 13 -10 13 C-5.05 6.565 -5.05 6.565 0 0 Z " fill="#24404B" transform="translate(281,524)"/>
<path d="M0 0 C0.66 0.33 1.32 0.66 2 1 C-2 6.33333333 -6 11.66666667 -10 17 C-10 13.71752569 -9.66923327 13.17433033 -7.8125 10.64453125 C-7.13574219 9.71157227 -7.13574219 9.71157227 -6.4453125 8.75976562 C-5.96835937 8.11716797 -5.49140625 7.47457031 -5 6.8125 C-4.52304687 6.15830078 -4.04609375 5.50410156 -3.5546875 4.83007812 C-2.37610725 3.21542318 -1.18886818 1.60709503 0 0 Z " fill="#1A3142" transform="translate(441,461)"/>
<path d="M0 0 C0 0.99 0 1.98 0 3 C-3.08461506 4.02820502 -4.89685239 4.04582849 -8.10546875 3.87890625 C-9.08837891 3.83056641 -10.07128906 3.78222656 -11.08398438 3.73242188 C-12.62022461 3.64831055 -12.62022461 3.64831055 -14.1875 3.5625 C-15.22326172 3.51029297 -16.25902344 3.45808594 -17.32617188 3.40429688 C-19.88442049 3.27461607 -22.44227938 3.13965022 -25 3 C-25 2.67 -25 2.34 -25 2 C-24.31373535 1.97494385 -23.6274707 1.9498877 -22.92041016 1.92407227 C-19.82174183 1.80828573 -16.72339077 1.68548115 -13.625 1.5625 C-12.54476562 1.52318359 -11.46453125 1.48386719 -10.3515625 1.44335938 C-8.8046875 1.38051758 -8.8046875 1.38051758 -7.2265625 1.31640625 C-6.27346191 1.27974854 -5.32036133 1.24309082 -4.33837891 1.20532227 C-1.97867651 1.14236535 -1.97867651 1.14236535 0 0 Z " fill="#BDBDBD" transform="translate(214,560)"/>
<path d="M0 0 C0.66 0 1.32 0 2 0 C1.36610765 3.49844386 -0.05177694 5.84086876 -2.0625 8.75 C-2.61035156 9.54921875 -3.15820312 10.3484375 -3.72265625 11.171875 C-4.14417969 11.77515625 -4.56570313 12.3784375 -5 13 C-5.33 12.01 -5.66 11.02 -6 10 C-5.34 10 -4.68 10 -4 10 C-3.896875 9.0925 -3.79375 8.185 -3.6875 7.25 C-2.99350187 3.96928156 -2.29914332 2.39110905 0 0 Z " fill="#376A81" transform="translate(398,518)"/>
<path d="M0 0 C0.66 0 1.32 0 2 0 C0.45158425 3.34708051 -1.49105864 6.24667512 -3.625 9.25 C-4.25664062 10.14203125 -4.88828125 11.0340625 -5.5390625 11.953125 C-6.02117187 12.62859375 -6.50328125 13.3040625 -7 14 C-7.66 13.67 -8.32 13.34 -9 13 C-7.68889201 11.01989841 -6.37618664 9.04088963 -5.0625 7.0625 C-4.50272461 6.21655273 -4.50272461 6.21655273 -3.93164062 5.35351562 C-1.11328125 1.11328125 -1.11328125 1.11328125 0 0 Z " fill="#1D3847" transform="translate(474,415)"/>
<path d="M0 0 C0.66 0.33 1.32 0.66 2 1 C0.71580959 2.67243402 -0.57757185 4.33781447 -1.875 6 C-2.59429688 6.928125 -3.31359375 7.85625 -4.0546875 8.8125 C-4.69664062 9.534375 -5.33859375 10.25625 -6 11 C-6.66 11 -7.32 11 -8 11 C-7.52653165 6.73878485 -5.03860562 4.81626862 -2 2 C-1.34 1.34 -0.68 0.68 0 0 Z " fill="#132642" transform="translate(677,135)"/>
<path d="M0 0 C0.99 0.495 0.99 0.495 2 1 C1.67 1.66 1.34 2.32 1 3 C1.61875 3.226875 2.2375 3.45375 2.875 3.6875 C5.65974437 5.40748917 5.98038343 6.94115029 7 10 C7.65213539 11.34050052 8.31379969 12.67661368 9 14 C5.43505248 11.32628936 2.4621624 8.7388392 0 5 C-0.25 2.1875 -0.25 2.1875 0 0 Z " fill="#0F172E" transform="translate(26,77)"/>
<path d="M0 0 C0.66 0 1.32 0 2 0 C0.51131293 4.60139641 -1.74629855 7.50227094 -5 11 C-5.66 11 -6.32 11 -7 11 C-5.51131293 6.39860359 -3.25370145 3.49772906 0 0 Z " fill="#122B3D" transform="translate(563,292)"/>
<path d="M0 0 C0.66 0.33 1.32 0.66 2 1 C0.90630138 2.81883578 -0.20031392 4.62990978 -1.3125 6.4375 C-1.92738281 7.44683594 -2.54226562 8.45617187 -3.17578125 9.49609375 C-5 12 -5 12 -8 13 C-6.53181332 9.89257577 -4.79975 7.09528261 -2.875 4.25 C-2.33617187 3.45078125 -1.79734375 2.6515625 -1.2421875 1.828125 C-0.62730469 0.92320312 -0.62730469 0.92320312 0 0 Z " fill="#858585" transform="translate(221,266)"/>
<path d="M0 0 C0.99 0.33 1.98 0.66 3 1 C3 3 3 3 0.75 5.375 C-0.1575 6.24125 -1.065 7.1075 -2 8 C-2.763125 8.763125 -3.52625 9.52625 -4.3125 10.3125 C-5.1478125 11.1478125 -5.1478125 11.1478125 -6 12 C-5.51300383 7.61703444 -4.16604109 5.96816352 -1 3 C-0.67 2.01 -0.34 1.02 0 0 Z " fill="#2D5E8D" transform="translate(587,255)"/>
<path d="M0 0 C0 3.63195496 -0.95453155 4.74713911 -3 7.6875 C-3.556875 8.49574219 -4.11375 9.30398438 -4.6875 10.13671875 C-5.120625 10.75160156 -5.55375 11.36648438 -6 12 C-7 9 -7 9 -6.375 6.5625 C-4.73408653 3.50443399 -2.80600586 1.99374101 0 0 Z " fill="#223F4B" transform="translate(333,611)"/>
<path d="M0 0 C0.66 0 1.32 0 2 0 C0.49087042 4.98012761 -2.55661849 8.24259942 -6 12 C-6.66 11.67 -7.32 11.34 -8 11 C-6.71632558 9.16106176 -5.42283239 7.32897375 -4.125 5.5 C-3.04605469 3.96859375 -3.04605469 3.96859375 -1.9453125 2.40625 C-1.30335938 1.6121875 -0.66140625 0.818125 0 0 Z " fill="#112633" transform="translate(534,332)"/>
<path d="M0 0 C0.33 0.99 0.66 1.98 1 3 C-0.14453125 5.04296875 -0.14453125 5.04296875 -1.8125 7.1875 C-2.62654297 8.26064453 -2.62654297 8.26064453 -3.45703125 9.35546875 C-3.96621094 9.89816406 -4.47539062 10.44085937 -5 11 C-5.66 11 -6.32 11 -7 11 C-5.5140084 6.40693504 -3.14985318 3.56430755 0 0 Z " fill="#5AB4D2" transform="translate(347,588)"/>
<path d="M0 0 C0.33 0.99 0.66 1.98 1 3 C-0.36328125 5.48046875 -0.36328125 5.48046875 -2.3125 8.1875 C-2.94800781 9.08855469 -3.58351563 9.98960937 -4.23828125 10.91796875 C-5.11033203 11.94857422 -5.11033203 11.94857422 -6 13 C-6.66 13 -7.32 13 -8 13 C-6.40956621 7.91061189 -3.2553049 4.12543357 0 0 Z " fill="#8C8B8B" transform="translate(98,442)"/>
<path d="M0 0 C1 3 1 3 -0.125 5.5 C-2.16131229 8.21508305 -4.00479488 9.46192169 -7 11 C-5.22054913 6.95579349 -2.60470327 3.53921513 0 0 Z " fill="#2C4B5F" transform="translate(362,413)"/>
<path d="M0 0 C0 3.39593478 -0.52165948 4.06619881 -2.5 6.6875 C-2.9640625 7.31011719 -3.428125 7.93273437 -3.90625 8.57421875 C-4.2671875 9.04472656 -4.628125 9.51523438 -5 10 C-5.99 9.67 -6.98 9.34 -8 9 C-5.68462045 5.27885429 -3.71420527 2.38770339 0 0 Z " fill="#152543" transform="translate(697,107)"/>
<path d="M0 0 C0.66 0 1.32 0 2 0 C0.5140084 4.59306496 -1.85014682 7.43569245 -5 11 C-5.33 10.01 -5.66 9.02 -6 8 C-4.85546875 5.95703125 -4.85546875 5.95703125 -3.1875 3.8125 C-2.37345703 2.73935547 -2.37345703 2.73935547 -1.54296875 1.64453125 C-1.03378906 1.10183594 -0.52460938 0.55914063 0 0 Z " fill="#182C33" transform="translate(324,623)"/>
<path d="M0 0 C0.66 0.33 1.32 0.66 2 1 C1.07265428 2.48555383 0.13275187 3.96327506 -0.8125 5.4375 C-1.33457031 6.26121094 -1.85664063 7.08492187 -2.39453125 7.93359375 C-4 10 -4 10 -7 11 C-5.22054913 6.95579349 -2.60470327 3.53921513 0 0 Z " fill="#50A0C0" transform="translate(381,541)"/>
<path d="M0 0 C0.66 0.33 1.32 0.66 2 1 C1.2628641 2.29905098 0.50969444 3.58901122 -0.25 4.875 C-0.87648438 5.95394531 -0.87648438 5.95394531 -1.515625 7.0546875 C-3.15928076 9.20874162 -4.51567335 9.99140585 -7 11 C-5.5140084 6.40693504 -3.14985318 3.56430755 0 0 Z " fill="#878686" transform="translate(262,493)"/>
<path d="M0 0 C0.33 0.99 0.66 1.98 1 3 C-0.21484375 5.04296875 -0.21484375 5.04296875 -1.9375 7.1875 C-2.50339844 7.90292969 -3.06929688 8.61835938 -3.65234375 9.35546875 C-4.09707031 9.89816406 -4.54179687 10.44085938 -5 11 C-5.66 10.67 -6.32 10.34 -7 10 C-6.02223933 8.51990357 -5.0427506 7.04094856 -4.0625 5.5625 C-3.51722656 4.73878906 -2.97195313 3.91507812 -2.41015625 3.06640625 C-1 1 -1 1 0 0 Z " fill="#1C3141" transform="translate(396,366)"/>
<path d="M0 0 C0 3.60573896 -0.81707462 4.41336566 -3 7.1875 C-3.556875 7.90292969 -4.11375 8.61835938 -4.6875 9.35546875 C-5.120625 9.89816406 -5.55375 10.44085938 -6 11 C-6 7.69747512 -5.46920223 5.93840447 -4 3 C-1.875 1.1875 -1.875 1.1875 0 0 Z " fill="#28496E" transform="translate(514,207)"/>
<path d="M0 0 C-0.66 1.65 -1.32 3.3 -2 5 C-2.66 5 -3.32 5 -4 5 C-4 5.99 -4 6.98 -4 8 C-4.66 8 -5.32 8 -6 8 C-6.25 5.6875 -6.25 5.6875 -6 3 C-3.95575462 1.02389614 -2.8823175 0 0 0 Z " fill="#518DA1" transform="translate(181,665)"/>
<path d="M0 0 C0.33 0.66 0.66 1.32 1 2 C-0.98 4.64 -2.96 7.28 -5 10 C-6 8 -6 8 -5.3125 5.5625 C-3.89170315 2.78856329 -2.60253852 1.64827439 0 0 Z " fill="#4C889C" transform="translate(236,588)"/>
<path d="M0 0 C0.75 1.6875 0.75 1.6875 1 4 C-1.13381449 7.2769294 -2.25018012 8.75006004 -6 10 C-4.6302836 6.00499382 -2.74277578 3.19990508 0 0 Z " fill="#A0A0A0" transform="translate(447,508)"/>
<path d="M0 0 C0.66 0 1.32 0 2 0 C0.49946106 3.11650396 -1.06181958 6.13149298 -3 9 C-3.99 9.33 -4.98 9.66 -6 10 C-4.63312778 6.01328937 -2.84804907 3.11505367 0 0 Z " fill="#0F2036" transform="translate(652,169)"/>
<path d="M0 0 C0 4.05345102 -1.58160112 5.8215329 -4 9 C-4.99 9.33 -5.98 9.66 -7 10 C-6.52727227 5.74545047 -4.03562624 3.80795427 -1 1 C-0.67 0.67 -0.34 0.34 0 0 Z " fill="#0E182E" transform="translate(712,87)"/>
<path d="M0 0 C0 3.56229451 -0.76109009 4.41109679 -2.875 7.1875 C-3.40867187 7.90292969 -3.94234375 8.61835938 -4.4921875 9.35546875 C-4.98976563 9.89816406 -5.48734375 10.44085938 -6 11 C-6.66 11 -7.32 11 -8 11 C-6.63629701 8.00779732 -5.05091917 5.70973471 -2.875 3.25 C-2.33617188 2.63640625 -1.79734375 2.0228125 -1.2421875 1.390625 C-0.62730469 0.70226562 -0.62730469 0.70226562 0 0 Z " fill="#7A7A7A" transform="translate(75,476)"/>
<path d="M0 0 C0.66 0 1.32 0 2 0 C1.39305845 3.15330554 0.3583335 5.18888867 -1.5625 7.75 C-2.24505859 8.67039063 -2.24505859 8.67039063 -2.94140625 9.609375 C-3.29074219 10.06828125 -3.64007812 10.5271875 -4 11 C-4.33 9.68 -4.66 8.36 -5 7 C-4.34 7 -3.68 7 -3 7 C-2.67 5.68 -2.34 4.36 -2 3 C-1.34 3 -0.68 3 0 3 C0 2.01 0 1.02 0 0 Z " fill="#183150" transform="translate(644,178)"/>
<path d="M0 0 C0 4.05345102 -1.58160112 5.8215329 -4 9 C-4.99 9.33 -5.98 9.66 -7 10 C-5.33248852 6.05860922 -2.77289351 3.2107188 0 0 Z " fill="#253E46" transform="translate(252,564)"/>
<path d="M0 0 C0 3.34419152 -0.47519394 4.06840321 -2.375 6.6875 C-2.81585938 7.31011719 -3.25671875 7.93273437 -3.7109375 8.57421875 C-4.13632812 9.04472656 -4.56171875 9.51523437 -5 10 C-5.66 10 -6.32 10 -7 10 C-6.1875 7.5625 -6.1875 7.5625 -5 5 C-4.01 4.67 -3.02 4.34 -2 4 C-0.79117904 1.99983534 -0.79117904 1.99983534 0 0 Z " fill="#7D7D7D" transform="translate(465,483)"/>
<path d="M0 0 C0 3 0 3 -2.5 5.6875 C-3.325 6.450625 -4.15 7.21375 -5 8 C-5.3125 5.6875 -5.3125 5.6875 -5 3 C-2.5 1.1875 -2.5 1.1875 0 0 Z " fill="#326179" transform="translate(429,478)"/>
<path d="M0 0 C0.99 0.33 1.98 0.66 3 1 C1.55746343 4.36591866 -0.33264727 6.51047079 -3 9 C-3 7.35 -3 5.7 -3 4 C-2.34 4 -1.68 4 -1 4 C-0.67 2.68 -0.34 1.36 0 0 Z " fill="#2B5874" transform="translate(487,394)"/>
<path d="M0 0 C0.99 0.33 1.98 0.66 3 1 C0.69 3.97 -1.62 6.94 -4 10 C-4.66 9.67 -5.32 9.34 -6 9 C-4.02 6.03 -2.04 3.06 0 0 Z " fill="#0D2133" transform="translate(622,210)"/>
<path d="M0 0 C0 3.34419152 -0.47519394 4.06840321 -2.375 6.6875 C-2.81585938 7.31011719 -3.25671875 7.93273437 -3.7109375 8.57421875 C-4.13632812 9.04472656 -4.56171875 9.51523437 -5 10 C-5.66 10 -6.32 10 -7 10 C-5.6062718 5.56541027 -3.39417765 3.12621626 0 0 Z " fill="#1D2E39" transform="translate(315,478)"/>
<path d="M0 0 C0.66 0 1.32 0 2 0 C0.6302836 3.99500618 -1.25722422 6.80009492 -4 10 C-4.66 9.67 -5.32 9.34 -6 9 C-5.05016642 7.49460339 -4.08988109 5.99579653 -3.125 4.5 C-2.59132812 3.6646875 -2.05765625 2.829375 -1.5078125 1.96875 C-0.76144531 0.99421875 -0.76144531 0.99421875 0 0 Z " fill="#8F8F8F" transform="translate(234,389)"/>
<path d="M0 0 C0 3.34419152 -0.47519394 4.06840321 -2.375 6.6875 C-2.81585938 7.31011719 -3.25671875 7.93273437 -3.7109375 8.57421875 C-4.13632813 9.04472656 -4.56171875 9.51523437 -5 10 C-5.66 10 -6.32 10 -7 10 C-6 8 -5 6 -4 4 C-3.34 4 -2.68 4 -2 4 C-1.34 2.68 -0.68 1.36 0 0 Z " fill="#828282" transform="translate(135,390)"/>
<path d="M0 0 C0.66 0 1.32 0 2 0 C0.63629701 2.99220268 -0.94908083 5.29026529 -3.125 7.75 C-3.93324219 8.67039062 -3.93324219 8.67039062 -4.7578125 9.609375 C-5.16773438 10.06828125 -5.57765625 10.5271875 -6 11 C-6 7.43770549 -5.23890991 6.58890321 -3.125 3.8125 C-2.59132813 3.09707031 -2.05765625 2.38164062 -1.5078125 1.64453125 C-0.76144531 0.83048828 -0.76144531 0.83048828 0 0 Z " fill="#091726" transform="translate(588,258)"/>
<path d="M0 0 C0 3.34419152 -0.47519394 4.06840321 -2.375 6.6875 C-2.81585938 7.31011719 -3.25671875 7.93273437 -3.7109375 8.57421875 C-4.13632812 9.04472656 -4.56171875 9.51523437 -5 10 C-5.66 10 -6.32 10 -7 10 C-5.6062718 5.56541027 -3.39417765 3.12621626 0 0 Z " fill="#152732" transform="translate(404,356)"/>
<path d="M0 0 C0 4.05480631 -1.54870092 5.84832975 -4 9 C-4.99 9 -5.98 9 -7 9 C-5.76465298 5.29395893 -3.80264776 3.66251537 -1 1 C-0.67 0.67 -0.34 0.34 0 0 Z " fill="#172630" transform="translate(377,393)"/>
<path d="M0 0 C0.66 0 1.32 0 2 0 C1 2 0 4 -1 6 C-1.66 6 -2.32 6 -3 6 C-3.33 6.99 -3.66 7.98 -4 9 C-4.33 8.34 -4.66 7.68 -5 7 C-4.21654285 5.82780457 -3.42297164 4.66236332 -2.625 3.5 C-2.18414062 2.8503125 -1.74328125 2.200625 -1.2890625 1.53125 C-0.65097656 0.77328125 -0.65097656 0.77328125 0 0 Z " fill="#7F7F7F" transform="translate(260,352)"/>
<path d="M0 0 C0.66 0 1.32 0 2 0 C2 1.65 2 3.3 2 5 C0.02 5.99 0.02 5.99 -2 7 C-2 5.68 -2 4.36 -2 3 C-1.34 3 -0.68 3 0 3 C0 2.01 0 1.02 0 0 Z " fill="#244C70" transform="translate(572,276)"/>
<path d="M0 0 C0.66 0.33 1.32 0.66 2 1 C0.63016497 4.16115776 0.0109362 4.9927092 -3 7 C-2.25 2.25 -2.25 2.25 0 0 Z " fill="#5496B0" transform="translate(261,553)"/>
<path d="M0 0 C1.32 0 2.64 0 4 0 C4 0.66 4 1.32 4 2 C3.01 2.495 3.01 2.495 2 3 C0.9590934 4.64142963 -0.04504326 6.30712215 -1 8 C-2 6 -2 6 -1.0625 2.875 C-0.5365625 1.451875 -0.5365625 1.451875 0 0 Z " fill="#264857" transform="translate(373,552)"/>
<path d="M0 0 C0.33 1.32 0.66 2.64 1 4 C0.01 4.33 -0.98 4.66 -2 5 C-2 5.99 -2 6.98 -2 8 C-2.99 8.33 -3.98 8.66 -5 9 C-3.7508258 5.54074837 -2.32472205 2.85306797 0 0 Z " fill="#9D9D9D" transform="translate(115,418)"/>
<path d="M0 0 C0 3.20395416 -0.74335022 5.09399739 -2 8 C-2.99 8 -3.98 8 -5 8 C-3.8141763 4.62496331 -2.72426311 2.35277269 0 0 Z " fill="#1D3445" transform="translate(444,301)"/>
<path d="M0 0 C0.33 0.66 0.66 1.32 1 2 C0.00390625 3.9453125 0.00390625 3.9453125 -1.4375 6.125 C-1.91058594 6.84945312 -2.38367188 7.57390625 -2.87109375 8.3203125 C-3.24363281 8.87460938 -3.61617187 9.42890625 -4 10 C-4.65234375 8.203125 -4.65234375 8.203125 -5 6 C-3.63510623 3.66629928 -1.8580962 1.99405446 0 0 Z " fill="#2E6193" transform="translate(595,245)"/>
<path d="M0 0 C0.625 1.8125 0.625 1.8125 1 4 C0.01 5.485 0.01 5.485 -1 7 C-1.99 7 -2.98 7 -4 7 C-3.43628586 3.73045798 -2.50037734 2.17424117 0 0 Z " fill="#1E3B67" transform="translate(662,153)"/>
<path d="M0 0 C0.66 0.33 1.32 0.66 2 1 C1.21654285 2.17219543 0.42297164 3.33763668 -0.375 4.5 C-0.81585938 5.1496875 -1.25671875 5.799375 -1.7109375 6.46875 C-2.13632812 6.9740625 -2.56171875 7.479375 -3 8 C-3.66 8 -4.32 8 -5 8 C-3.62845496 5.04590299 -2.01136276 2.55991624 0 0 Z " fill="#1F3C45" transform="translate(294,665)"/>
<path d="M0 0 C0.66 0 1.32 0 2 0 C0.68775452 3.93673644 -0.91910327 6.22719294 -4 9 C-2.94124926 5.59687262 -1.99097846 2.98646769 0 0 Z " fill="#23464F" transform="translate(300,655)"/>
<path d="M0 0 C0 2.62113708 -0.31292445 4.50935112 -1 7 C-2.32 7.33 -3.64 7.66 -5 8 C-3.8141763 4.62496331 -2.72426311 2.35277269 0 0 Z " fill="#264049" transform="translate(208,624)"/>
<path d="M0 0 C0.66 0 1.32 0 2 0 C1.8125 1.8125 1.8125 1.8125 1 4 C-1.5625 5.75 -1.5625 5.75 -4 7 C-2.79618552 4.50638429 -1.54571278 2.31856917 0 0 Z " fill="#182D44" transform="translate(532,180)"/>
</svg>
